<svg width="35" height="35" viewBox="0 0 35 35" fill="none" xmlns="http://www.w3.org/2000/svg">
<g clip-path="url(#clip0_10_6488)">
<path d="M33.5415 13.4559C33.5759 11.7841 33.3702 10.1161 32.9308 8.5028C32.3413 6.49757 31.1177 4.73741 29.4436 3.48614C26.1507 0.906052 23.073 -0.163198 19.475 0.0193851C17.577 0.150826 15.6912 0.420457 13.8324 0.826135C11.201 1.35522 9.28943 2.28039 7.98801 3.65472C6.95667 4.75296 6.16031 6.05012 5.64768 7.4668C5.43038 8.09101 5.25346 8.72855 5.11801 9.37547L5.07134 9.5773C4.94848 10.0317 4.78265 10.4733 4.57609 10.8962C4.45593 11.1657 4.33518 11.4352 4.23076 11.7129C4.09552 12.021 4.0415 12.3586 4.07384 12.6935C4.19253 13.2146 4.49459 13.6756 4.92493 13.9926C5.21134 14.2551 5.39918 14.4388 5.40093 14.6068C5.37812 14.6938 5.34379 14.7774 5.29884 14.8553C4.60027 16.3282 3.74398 17.721 2.74501 19.0092C2.32618 19.5208 1.88751 20.1176 1.97676 20.7236C2.10425 21.1836 2.40796 21.5747 2.82201 21.8121C3.01503 21.945 3.2185 22.0621 3.43043 22.1621C3.68184 22.2905 4.10359 22.5051 4.13043 22.6597C4.16823 22.8561 4.14608 23.0594 4.06684 23.2431C3.97993 23.4251 3.89184 23.5826 3.81309 23.7196C3.59901 24.0982 3.24026 24.7329 3.77984 25.1867C3.90584 25.2976 4.12168 25.4673 4.31884 25.6184C4.17316 25.8746 4.10772 26.1686 4.13101 26.4625C4.16267 26.6908 4.28693 26.8961 4.47459 27.0301C4.60526 27.1228 4.74468 27.2051 4.88293 27.2821C5.22593 27.4775 5.35951 27.5691 5.40793 27.7487C5.4394 27.9863 5.41789 28.228 5.34493 28.4563C5.31109 28.6097 5.27843 28.7626 5.25801 28.9154C5.1989 29.446 5.26585 29.983 5.45343 30.4828C5.75506 31.5914 6.87234 32.2695 7.99501 32.0251C9.66064 31.6235 11.3034 31.1322 12.916 30.5534C14.2273 31.3281 15.0563 33.6713 15.2721 34.5504C15.336 34.8113 15.5699 34.9948 15.8385 34.9949L30.4802 34.9546C30.6649 34.9541 30.8384 34.8661 30.9479 34.7174C31.0575 34.5687 31.0902 34.377 31.0361 34.2004C30.8915 33.8023 30.6914 33.4266 30.4417 33.0845C30.3038 32.8866 30.1791 32.6798 30.0683 32.4656C29.8054 31.9275 29.585 31.3697 29.4092 30.7972C29.0762 29.6704 28.8462 28.5158 28.722 27.3474C28.5153 25.6031 28.7787 23.8352 29.485 22.2269C29.9168 21.3363 30.4481 20.4976 31.0688 19.7267C31.4188 19.2525 31.7845 18.7625 32.1123 18.2451C33.0329 16.8163 33.5285 15.1554 33.5415 13.4559ZM30.1325 19.0366C29.4586 19.878 28.8828 20.7936 28.4163 21.7655C27.627 23.5645 27.333 25.5418 27.5647 27.4926C27.6953 28.7302 27.9386 29.9533 28.2915 31.1466C28.4849 31.7754 28.7267 32.3882 29.0148 32.9795C29.1475 33.2404 29.2978 33.492 29.4646 33.7326L29.5066 33.7961L16.2795 33.8335C15.8909 32.4493 15.1872 31.1739 14.2233 30.1071C14.372 30.0552 14.5149 30.0068 14.6438 29.9601C15.086 29.8056 15.4203 29.6883 15.5871 29.6358C18.0878 28.8506 19.3385 27.7143 19.3047 26.2577C19.2857 25.9405 19.0251 25.6918 18.7073 25.6878C18.5526 25.6915 18.4057 25.7565 18.2989 25.8685C18.1921 25.9805 18.1343 26.1304 18.138 26.2851C18.152 26.886 17.6603 27.7621 15.2365 28.5228C15.0615 28.5776 14.7168 28.6978 14.2577 28.8594C13.8418 29.0052 13.3313 29.1837 12.7731 29.3745C11.1299 29.9688 9.45584 30.4739 7.75818 30.8876C7.21162 30.993 6.67966 30.6471 6.55418 30.1048C6.42821 29.7773 6.38008 29.4251 6.41359 29.0758C6.42934 28.9551 6.45676 28.8343 6.48359 28.713C6.60328 28.3081 6.62211 27.8802 6.53843 27.4664C6.37097 26.9308 5.97814 26.4949 5.46276 26.2729L5.33793 26.2011C5.40039 26.0737 5.47523 25.9528 5.56134 25.8401C5.65839 25.7161 5.70123 25.5582 5.68014 25.4023C5.65904 25.2463 5.57581 25.1054 5.44934 25.0117C5.30934 24.9079 4.97568 24.6582 4.73651 24.4663C4.76626 24.4121 4.79951 24.3496 4.83043 24.2977C4.92026 24.1396 5.02234 23.9571 5.12209 23.7488C5.30866 23.3409 5.36351 22.885 5.27901 22.4445C5.14309 21.7287 4.46234 21.3799 3.96009 21.1256C3.79076 21.0453 3.62842 20.9511 3.47476 20.8438C3.35385 20.7597 3.23921 20.6669 3.13176 20.5661C3.13176 20.4786 3.22509 20.2651 3.67368 19.7174C4.71595 18.3735 5.60958 16.9207 6.33893 15.3844C6.47938 15.1439 6.55795 14.8723 6.56759 14.594C6.50813 14.0068 6.19621 13.4745 5.71301 13.1356C5.47968 12.9198 5.25451 12.7156 5.22943 12.536C5.23174 12.3948 5.26353 12.2558 5.32276 12.1276C5.41843 11.8745 5.52984 11.626 5.64126 11.3775C5.87906 10.8867 6.06875 10.3741 6.20768 9.8468L6.25493 9.64322C6.37949 9.04442 6.54239 8.45423 6.74259 7.8763C7.19983 6.60583 7.91187 5.44219 8.83501 4.4568C9.96493 3.2668 11.6753 2.45014 14.0623 1.97005C15.8648 1.57557 17.6938 1.31315 19.5345 1.18489C22.835 1.00989 25.6683 2.00972 28.7226 4.40605C30.2067 5.50027 31.2903 7.05175 31.8067 8.82189C32.2159 10.3258 32.4073 11.8807 32.3748 13.439C32.3646 14.925 31.9319 16.3774 31.1271 17.6267C30.8214 18.1062 30.4703 18.5793 30.1308 19.0366H30.1325Z" fill="#4CAF50"/>
<path d="M13.7083 9.91679H14.2916C14.6138 9.91679 14.8749 9.65562 14.8749 9.33346C14.8749 9.01129 14.6138 8.75012 14.2916 8.75012H13.7083C12.7418 8.75012 11.9583 9.53362 11.9583 10.5001V11.0835C11.9583 12.05 12.7418 12.8335 13.7083 12.8335H14.2916C14.6138 12.8335 14.8749 12.5723 14.8749 12.2501C14.8749 11.928 14.6138 11.6668 14.2916 11.6668H13.7083C13.3861 11.6668 13.1249 11.4056 13.1249 11.0835V10.5001C13.1249 10.178 13.3861 9.91679 13.7083 9.91679Z" fill="#4CAF50"/>
<path d="M17.7916 8.16681C17.4694 8.16681 17.2083 8.42798 17.2083 8.75014V9.91681C17.2083 10.239 16.9471 10.5001 16.6249 10.5001H16.0416C15.7194 10.5001 15.4583 10.7613 15.4583 11.0835C15.4583 11.4056 15.7194 11.6668 16.0416 11.6668H16.6249C17.5914 11.6668 18.3749 10.8833 18.3749 9.91681V8.75014C18.3749 8.42798 18.1138 8.16681 17.7916 8.16681Z" fill="#4CAF50"/>
<path d="M20.1249 8.16677V7.58343C20.1249 6.61694 19.3414 5.83344 18.3749 5.83344H17.2083C16.2418 5.83344 15.4583 6.61694 15.4583 7.58343V8.16677C15.4583 8.48893 15.7194 8.7501 16.0416 8.7501C16.3638 8.7501 16.6249 8.48893 16.6249 8.16677V7.58343C16.6249 7.26127 16.8861 7.0001 17.2083 7.0001H18.3749C18.6971 7.0001 18.9583 7.26127 18.9583 7.58343V8.16677C18.9583 8.48893 19.2194 8.7501 19.5416 8.7501C19.8638 8.7501 20.1249 8.48893 20.1249 8.16677Z" fill="#4CAF50"/>
<path d="M21.8748 12.2501H21.2915C20.9693 12.2501 20.7082 11.989 20.7082 11.6668V11.0835C20.7082 10.7613 20.447 10.5001 20.1248 10.5001C19.8027 10.5001 19.5415 10.7613 19.5415 11.0835V11.6668C19.5415 12.6333 20.325 13.4168 21.2915 13.4168H21.8748C22.197 13.4168 22.4582 13.1556 22.4582 12.8335C22.4582 12.5113 22.197 12.2501 21.8748 12.2501Z" fill="#4CAF50"/>
<path d="M24.7917 10.5002C24.7917 10.178 24.5305 9.91683 24.2083 9.91683H23.625C23.3028 9.91683 23.0417 9.65566 23.0417 9.3335C23.0417 9.01133 23.3028 8.75016 23.625 8.75016H24.2083C24.5305 8.75016 24.7917 8.489 24.7917 8.16683C24.7917 7.84466 24.5305 7.5835 24.2083 7.5835H23.625C22.6585 7.5835 21.875 8.367 21.875 9.3335C21.875 10.3 22.6585 11.0835 23.625 11.0835H24.2083C24.5305 11.0835 24.7917 10.8223 24.7917 10.5002Z" fill="#4CAF50"/>
<path d="M26.5416 10.5001C26.2194 10.5001 25.9583 10.7613 25.9583 11.0835V12.2501C25.9583 12.5723 25.6971 12.8335 25.3749 12.8335H24.7916C24.4694 12.8335 24.2083 13.0946 24.2083 13.4168C24.2083 13.739 24.4694 14.0001 24.7916 14.0001H25.3749C26.3414 14.0001 27.1249 13.2166 27.1249 12.2501V11.0835C27.1249 10.7613 26.8638 10.5001 26.5416 10.5001Z" fill="#4CAF50"/>
<path d="M31.1848 12.2502C31.1848 12.2408 31.1801 12.2332 31.1795 12.2239C31.1272 11.1815 30.9613 10.148 30.6849 9.14158C30.234 7.61067 29.2926 6.27028 28.0056 5.32658C25.3672 3.25691 22.9749 2.3335 20.2467 2.3335C20.032 2.3335 19.815 2.33933 19.5928 2.34983C19.3939 2.36033 19.1949 2.38308 18.996 2.39941C18.9826 2.39941 18.9715 2.39183 18.9581 2.39183C18.9275 2.39521 18.8972 2.40126 18.8677 2.40991C17.3302 2.55821 15.8024 2.79328 14.2914 3.114C13.6288 3.2445 12.9768 3.42408 12.3408 3.65125C12.3274 3.6565 12.3139 3.65941 12.3011 3.66525C11.3177 3.98875 10.4219 4.53424 9.6831 5.2595C8.96794 6.02756 8.3983 6.91918 8.00194 7.89091C7.98404 7.92383 7.96939 7.95841 7.95819 7.99416C7.9191 8.08983 7.87419 8.18025 7.83802 8.27766C7.65894 8.76358 7.37719 9.97341 7.3416 10.1257C7.21035 10.7784 6.88485 13.0155 8.20844 14.419C9.04844 15.3092 10.3329 15.6382 12.0199 15.399L12.8051 15.287C16.5478 14.7486 18.4261 14.4785 20.0425 16.0593C20.3534 16.3632 20.6719 16.6736 21.0033 16.9752C20.6364 18.129 20.1604 20.5918 22.1116 22.0502C24.2081 23.6252 24.2081 24.0516 24.2081 25.0835C24.207 25.2862 24.3112 25.475 24.4833 25.582C24.6555 25.6891 24.8709 25.6991 25.0522 25.6085C25.205 25.5292 26.5414 24.7848 26.5414 22.1668C26.5414 20.7347 27.6089 19.4969 28.663 18.4726L28.6805 18.4568C29.2521 18.0645 29.7465 17.5701 30.1389 16.9985C30.562 16.3314 30.8647 15.5951 31.0331 14.8232C31.0676 14.748 31.0855 14.6663 31.0856 14.5835C31.1589 14.2009 31.1999 13.8127 31.2081 13.4232C31.2139 13.0318 31.2052 12.6439 31.1842 12.2607C31.1847 12.2572 31.1848 12.2537 31.1848 12.2502ZM25.3748 22.1668C25.3847 22.652 25.3153 23.1355 25.1694 23.5983C24.897 22.9164 24.2659 22.21 22.8081 21.1162C21.649 20.2482 21.7307 18.8051 21.9809 17.7912C23.0738 18.6685 24.4296 19.1535 25.8309 19.1685C26.0582 19.1668 26.2852 19.1536 26.5111 19.1288C25.8102 19.9899 25.411 21.0571 25.3748 22.1668ZM29.1548 16.3767C28.7465 16.9886 28.1691 17.4685 27.4929 17.758C26.4222 18.1026 25.268 18.0854 24.2081 17.709V16.9168C24.2081 16.5947 24.4693 16.3335 24.7914 16.3335H26.5414C26.8636 16.3335 27.1248 16.0723 27.1248 15.7502C27.1248 15.428 26.8636 15.1668 26.5414 15.1668H24.7914C23.8249 15.1668 23.0414 15.9503 23.0414 16.9168V17.0982C22.2579 16.5416 21.5267 15.9149 20.8569 15.2257C20.1796 14.5393 19.3172 14.0648 18.3748 13.8602V13.4168C18.3748 13.0947 18.1136 12.8335 17.7914 12.8335C17.4693 12.8335 17.2081 13.0947 17.2081 13.4168V13.7178C15.6754 13.7209 14.1459 13.8597 12.6377 14.1326L11.8549 14.244C11.5029 14.2959 11.1468 14.3142 10.7914 14.2988V14.0002C10.7914 13.678 10.5303 13.4168 10.2081 13.4168C9.88594 13.4168 9.62477 13.678 9.62477 14.0002V14.0282C9.41175 13.9275 9.21868 13.7892 9.05485 13.6198C8.72052 13.2331 8.5066 12.757 8.43944 12.2502H9.04144C10.0079 12.2502 10.7914 11.4667 10.7914 10.5002C10.7914 10.178 10.5303 9.91683 10.2081 9.91683C9.88594 9.91683 9.62477 10.178 9.62477 10.5002C9.62477 10.8223 9.3636 11.0835 9.04144 11.0835H8.38752C8.40339 10.8447 8.43436 10.6072 8.48027 10.3724C8.55669 10.0411 8.77194 9.14741 8.90785 8.75016H10.7914C11.1136 8.75016 11.3748 8.489 11.3748 8.16683C11.3748 7.84466 11.1136 7.5835 10.7914 7.5835H9.43927C9.73505 7.03129 10.1011 6.51973 10.5284 6.06158C10.9414 5.64802 11.4258 5.31247 11.9581 5.07108V5.8335C11.9581 6.79999 12.7416 7.5835 13.7081 7.5835C14.0303 7.5835 14.2914 7.32233 14.2914 7.00016C14.2914 6.678 14.0303 6.41683 13.7081 6.41683C13.3859 6.41683 13.1248 6.15566 13.1248 5.8335V4.61433C13.5847 4.4708 14.0521 4.35202 14.5248 4.2585C15.0218 4.15816 15.5304 4.06191 16.0414 3.97033V4.0835C16.0414 4.40566 16.3026 4.66683 16.6248 4.66683C16.9469 4.66683 17.2081 4.40566 17.2081 4.0835V3.77608C17.5966 3.71775 17.9857 3.66408 18.3748 3.6215V4.0835C18.3748 4.40566 18.6359 4.66683 18.9581 4.66683C19.2803 4.66683 19.5414 4.40566 19.5414 4.0835V3.52466C19.5782 3.52466 19.6155 3.51766 19.6517 3.51533C20.0122 3.50016 20.3628 3.50016 20.7081 3.51475V5.8335C20.7081 6.15566 20.9693 6.41683 21.2914 6.41683H22.4581C22.7803 6.41683 23.0414 6.15566 23.0414 5.8335C23.0414 5.51133 22.7803 5.25016 22.4581 5.25016H21.8748V3.64191C22.8954 3.81488 23.8823 4.14799 24.799 4.62891C24.799 4.64233 24.7914 4.65341 24.7914 4.66683V6.41683C24.7914 6.739 25.0526 7.00016 25.3748 7.00016C25.6969 7.00016 25.9581 6.739 25.9581 6.41683V5.30266C26.3408 5.55058 26.7281 5.82125 27.1248 6.12633V7.5835C27.1248 7.90566 26.8636 8.16683 26.5414 8.16683C26.2193 8.16683 25.9581 8.428 25.9581 8.75016C25.9581 9.07233 26.2193 9.3335 26.5414 9.3335C27.5079 9.3335 28.2914 8.54999 28.2914 7.5835V7.18391C28.8843 7.83453 29.3192 8.613 29.5625 9.45891C29.7603 10.1817 29.8938 10.9205 29.9615 11.6668H28.8748C28.5526 11.6668 28.2914 11.928 28.2914 12.2502C28.2914 12.5723 28.5526 12.8335 28.8748 12.8335H30.0292C30.0333 13.0242 30.0426 13.2138 30.0397 13.4063C30.0368 13.6093 30.0146 13.8047 29.9924 14.0002H28.8748C28.5526 14.0002 28.2914 14.2613 28.2914 14.5835C28.2914 14.9057 28.5526 15.1668 28.8748 15.1668H29.7288C29.5856 15.5912 29.3929 15.9973 29.1548 16.3767Z" fill="#4CAF50"/>
</g>
<defs>
<clipPath id="clip0_10_6488">
<rect width="35" height="35" fill="white"/>
</clipPath>
</defs>
</svg>
