<svg width="60" height="60" viewBox="0 0 60 60" fill="none" xmlns="http://www.w3.org/2000/svg">
<g clip-path="url(#clip0_10_6951)">
<path d="M57.4999 23.0668C57.5588 20.201 57.2062 17.3415 56.4529 14.5759C55.4423 11.1383 53.3449 8.12089 50.4749 5.97585C44.8299 1.55285 39.5539 -0.280152 33.3859 0.032848C30.1322 0.258174 26.8993 0.720399 23.7129 1.41585C19.2019 2.32285 15.9249 3.90885 13.6939 6.26485C11.9259 8.14754 10.5607 10.3713 9.6819 12.7999C9.3094 13.8699 9.00611 14.9628 8.7739 16.0718L8.6939 16.4178C8.48328 17.1967 8.199 17.9538 7.8449 18.6789C7.6389 19.1409 7.4319 19.6028 7.2529 20.0788C7.02107 20.607 6.92846 21.1857 6.9839 21.7598C7.18736 22.6532 7.70518 23.4436 8.4429 23.9868C8.9339 24.4368 9.2559 24.7519 9.2589 25.0399C9.21981 25.189 9.16095 25.3323 9.0839 25.4659C7.88635 27.9908 6.41843 30.3785 4.7059 32.5869C3.9879 33.4639 3.2359 34.4869 3.3889 35.5259C3.60745 36.3143 4.12811 36.9848 4.8379 37.3918C5.16879 37.6197 5.5176 37.8204 5.8809 37.9919C6.3119 38.2119 7.0349 38.5799 7.0809 38.8449C7.14572 39.1816 7.10774 39.53 6.9719 39.8449C6.8229 40.1569 6.6719 40.4268 6.5369 40.6618C6.1699 41.3109 5.5549 42.3988 6.4799 43.1768C6.6959 43.3669 7.0659 43.6579 7.4039 43.9169C7.15416 44.3561 7.04198 44.8602 7.0819 45.3638C7.13618 45.7553 7.3492 46.1072 7.6709 46.3369C7.8949 46.4959 8.1339 46.6369 8.3709 46.7689C8.9589 47.1039 9.1879 47.2609 9.2709 47.5689C9.32486 47.9762 9.28798 48.3904 9.1629 48.7819C9.1049 49.0449 9.0489 49.3069 9.0139 49.5689C8.91257 50.4784 9.02735 51.399 9.3489 52.2559C9.866 54.1564 11.7813 55.3187 13.7059 54.8999C16.5613 54.2113 19.3774 53.3691 22.1419 52.3769C24.3899 53.7049 25.8109 57.7219 26.1809 59.2289C26.2905 59.6761 26.6914 59.9907 27.1519 59.9909L52.2519 59.9219C52.5685 59.9209 52.8659 59.77 53.0538 59.5152C53.2416 59.2603 53.2977 58.9316 53.2049 58.6289C52.957 57.9464 52.6139 57.3024 52.1859 56.7159C51.9496 56.3766 51.7358 56.0222 51.5459 55.6549C51.0951 54.7325 50.7173 53.7762 50.4159 52.7949C49.8451 50.8632 49.4508 48.8838 49.2379 46.8809C48.8835 43.8906 49.3351 40.8599 50.5459 38.1029C51.2861 36.5762 52.1969 35.1383 53.2609 33.8169C53.8609 33.0039 54.4879 32.1639 55.0499 31.2769C56.628 28.8276 57.4776 25.9804 57.4999 23.0668ZM51.6559 32.6339C50.5006 34.0763 49.5135 35.6457 48.7139 37.3119C47.3607 40.3959 46.8567 43.7856 47.2539 47.1299C47.4778 49.2514 47.8949 51.3481 48.4999 53.3939C48.8314 54.4717 49.2459 55.5222 49.7399 56.5359C49.9674 56.9831 50.225 57.4145 50.5109 57.8269L50.5829 57.9359L27.9079 57.9999C27.2418 55.6269 26.0353 53.4405 24.3829 51.6119C24.6379 51.5229 24.8829 51.4399 25.1039 51.3599C25.8619 51.0949 26.4349 50.8939 26.7209 50.8039C31.0079 49.4579 33.1519 47.5099 33.0939 45.0129C33.0614 44.4691 32.6146 44.0427 32.0699 44.0359C31.8047 44.0421 31.5528 44.1536 31.3697 44.3456C31.1867 44.5377 31.0875 44.7946 31.0939 45.0599C31.1179 46.0899 30.2749 47.5919 26.1199 48.8959C25.8199 48.9899 25.2289 49.1959 24.4419 49.4729C23.7289 49.7229 22.8539 50.0289 21.8969 50.3559C19.08 51.3747 16.2102 52.2406 13.2999 52.9499C12.363 53.1304 11.451 52.5375 11.2359 51.6079C11.02 51.0465 10.9375 50.4426 10.9949 49.8439C11.0219 49.6369 11.0689 49.4299 11.1149 49.2219C11.3201 48.5279 11.3524 47.7942 11.2089 47.0849C10.9218 46.1667 10.2484 45.4195 9.3649 45.0389L9.1509 44.9159C9.25799 44.6975 9.38628 44.4901 9.5339 44.2969C9.70026 44.0844 9.77371 43.8137 9.73755 43.5463C9.70139 43.2789 9.55871 43.0375 9.3419 42.8769C9.1019 42.6989 8.5299 42.2709 8.1199 41.9419C8.1709 41.8489 8.2279 41.7419 8.2809 41.6529C8.4349 41.3819 8.6099 41.0689 8.7809 40.7119C9.10074 40.0126 9.19476 39.231 9.0499 38.4759C8.8169 37.2489 7.6499 36.6509 6.7889 36.2149C6.49862 36.0773 6.22032 35.9157 5.9569 35.7318C5.74963 35.5876 5.55311 35.4286 5.3689 35.2559C5.3689 35.1059 5.5289 34.7398 6.2979 33.8008C8.08465 31.4971 9.61659 29.0066 10.8669 26.3729C11.1077 25.9606 11.2424 25.495 11.2589 25.0179C11.157 24.0113 10.6223 23.0988 9.7939 22.5178C9.3939 22.1479 9.0079 21.7978 8.9649 21.4898C8.96887 21.2479 9.02337 21.0095 9.1249 20.7899C9.2889 20.3559 9.4799 19.9298 9.6709 19.5038C10.0786 18.6626 10.4037 17.7838 10.6419 16.8798L10.7229 16.5308C10.9365 15.5043 11.2157 14.4926 11.5589 13.5019C12.3427 11.3239 13.5634 9.32909 15.1459 7.63985C17.0829 5.59985 20.0149 4.19985 24.1069 3.37685C27.197 2.70059 30.3323 2.25072 33.4879 2.03085C39.1459 1.73085 44.0029 3.44485 49.2389 7.55285C51.7832 9.42865 53.6407 12.0883 54.5259 15.1228C55.2275 17.701 55.5555 20.3665 55.4999 23.0378C55.4824 25.5853 54.7405 28.0752 53.3609 30.2169C52.8369 31.0389 52.2349 31.8498 51.6529 32.6339H51.6559Z" fill="#4CAF50"/>
<path d="M23.5 17H24.5C25.0523 17 25.5 16.5523 25.5 16C25.5 15.4477 25.0523 15 24.5 15H23.5C21.8431 15 20.5 16.3431 20.5 18V19C20.5 20.6569 21.8431 22 23.5 22H24.5C25.0523 22 25.5 21.5523 25.5 21C25.5 20.4477 25.0523 20 24.5 20H23.5C22.9477 20 22.5 19.5523 22.5 19V18C22.5 17.4477 22.9477 17 23.5 17Z" fill="#4CAF50"/>
<path d="M30.5 13.9998C29.9477 13.9998 29.5 14.4475 29.5 14.9998V16.9998C29.5 17.552 29.0523 17.9998 28.5 17.9998H27.5C26.9477 17.9998 26.5 18.4475 26.5 18.9998C26.5 19.552 26.9477 19.9998 27.5 19.9998H28.5C30.1569 19.9998 31.5 18.6566 31.5 16.9998V14.9998C31.5 14.4475 31.0523 13.9998 30.5 13.9998Z" fill="#4CAF50"/>
<path d="M34.5 13.9998V12.9998C34.5 11.3429 33.1569 9.99976 31.5 9.99976H29.5C27.8431 9.99976 26.5 11.3429 26.5 12.9998V13.9998C26.5 14.552 26.9477 14.9998 27.5 14.9998C28.0523 14.9998 28.5 14.552 28.5 13.9998V12.9998C28.5 12.4475 28.9477 11.9998 29.5 11.9998H31.5C32.0523 11.9998 32.5 12.4475 32.5 12.9998V13.9998C32.5 14.552 32.9477 14.9998 33.5 14.9998C34.0523 14.9998 34.5 14.552 34.5 13.9998Z" fill="#4CAF50"/>
<path d="M37.5 20.9998H36.5C35.9477 20.9998 35.5 20.552 35.5 19.9998V18.9998C35.5 18.4475 35.0523 17.9998 34.5 17.9998C33.9477 17.9998 33.5 18.4475 33.5 18.9998V19.9998C33.5 21.6566 34.8432 22.9998 36.5 22.9998H37.5C38.0523 22.9998 38.5 22.552 38.5 21.9998C38.5 21.4475 38.0523 20.9998 37.5 20.9998Z" fill="#4CAF50"/>
<path d="M42.5 18C42.5 17.4477 42.0523 17 41.5 17H40.5C39.9477 17 39.5 16.5523 39.5 16C39.5 15.4477 39.9477 15 40.5 15H41.5C42.0523 15 42.5 14.5523 42.5 14C42.5 13.4477 42.0523 13 41.5 13H40.5C38.8431 13 37.5 14.3431 37.5 16C37.5 17.6569 38.8431 19 40.5 19H41.5C42.0523 19 42.5 18.5523 42.5 18Z" fill="#4CAF50"/>
<path d="M45.5 17.9998C44.9477 17.9998 44.5 18.4475 44.5 18.9998V20.9998C44.5 21.552 44.0523 21.9998 43.5 21.9998H42.5C41.9477 21.9998 41.5 22.4475 41.5 22.9998C41.5 23.552 41.9477 23.9998 42.5 23.9998H43.5C45.1569 23.9998 46.5 22.6566 46.5 20.9998V18.9998C46.5 18.4475 46.0523 17.9998 45.5 17.9998Z" fill="#4CAF50"/>
<path d="M53.4599 21C53.4599 20.984 53.4519 20.971 53.4509 20.955C53.3612 19.1681 53.0769 17.3963 52.6029 15.671C51.83 13.0466 50.2162 10.7488 48.0099 9.131C43.4869 5.583 39.3859 4 34.7089 4C34.3409 4 33.9689 4.01 33.5879 4.028C33.2469 4.046 32.9059 4.085 32.5649 4.113C32.5419 4.113 32.5229 4.1 32.4999 4.1C32.4474 4.10579 32.3956 4.11617 32.3449 4.131C29.7093 4.38523 27.0901 4.7882 24.4999 5.338C23.364 5.56173 22.2462 5.86958 21.1559 6.259C21.1329 6.268 21.1099 6.273 21.0879 6.283C19.402 6.83757 17.8664 7.77271 16.5999 9.016C15.3739 10.3327 14.3974 11.8612 13.7179 13.527C13.6872 13.5834 13.6621 13.6427 13.6429 13.704C13.5759 13.868 13.4989 14.023 13.4369 14.19C13.1299 15.023 12.6469 17.097 12.5859 17.358C12.3609 18.477 11.8029 22.312 14.0719 24.718C15.5119 26.244 17.7139 26.808 20.6059 26.398L21.9519 26.206C28.3679 25.283 31.5879 24.82 34.3589 27.53C34.8919 28.051 35.4379 28.583 36.0059 29.1C35.3769 31.078 34.5609 35.3 37.9059 37.8C41.4999 40.5 41.4999 41.231 41.4999 43C41.498 43.3475 41.6767 43.6711 41.9718 43.8546C42.2668 44.0382 42.6361 44.0554 42.9469 43.9C43.2089 43.764 45.4999 42.488 45.4999 38C45.4999 35.545 47.3299 33.423 49.1369 31.667L49.1669 31.64C50.1468 30.9674 50.9943 30.1199 51.6669 29.14C52.3924 27.9964 52.9113 26.7342 53.1999 25.411C53.259 25.282 53.2897 25.1419 53.2899 25C53.4155 24.3441 53.4858 23.6787 53.4999 23.011C53.5099 22.34 53.4949 21.675 53.4589 21.018C53.4597 21.012 53.4601 21.006 53.4599 21ZM43.4999 38C43.5169 38.8317 43.398 39.6606 43.1479 40.454C42.6809 39.285 41.5989 38.074 39.0999 36.199C37.1129 34.711 37.2529 32.237 37.6819 30.499C39.5555 32.0029 41.8796 32.8343 44.2819 32.86C44.6715 32.8571 45.0607 32.8344 45.4479 32.792C44.2464 34.2682 43.5621 36.0977 43.4999 38ZM49.9799 28.074C49.2801 29.123 48.2902 29.9457 47.1309 30.442C45.2956 31.0328 43.3168 31.0033 41.4999 30.358V29C41.4999 28.4477 41.9476 28 42.4999 28H45.4999C46.0522 28 46.4999 27.5523 46.4999 27C46.4999 26.4477 46.0522 26 45.4999 26H42.4999C40.8431 26 39.4999 27.3431 39.4999 29V29.311C38.1568 28.3568 36.9033 27.2824 35.7549 26.101C34.5939 24.9242 33.1154 24.1107 31.4999 23.76V23C31.4999 22.4477 31.0522 22 30.4999 22C29.9476 22 29.4999 22.4477 29.4999 23V23.516C26.8724 23.5213 24.2505 23.7592 21.6649 24.227L20.3229 24.418C19.7196 24.5069 19.1092 24.5384 18.4999 24.512V24C18.4999 23.4477 18.0522 23 17.4999 23C16.9476 23 16.4999 23.4477 16.4999 24V24.048C16.1347 23.8754 15.8038 23.6383 15.5229 23.348C14.9498 22.685 14.5831 21.8688 14.4679 21H15.4999C17.1568 21 18.4999 19.6569 18.4999 18C18.4999 17.4477 18.0522 17 17.4999 17C16.9476 17 16.4999 17.4477 16.4999 18C16.4999 18.5523 16.0522 19 15.4999 19H14.3789C14.4061 18.5907 14.4592 18.1836 14.5379 17.781C14.6689 17.213 15.0379 15.681 15.2709 15H18.4999C19.0522 15 19.4999 14.5523 19.4999 14C19.4999 13.4477 19.0522 13 18.4999 13H16.1819C16.689 12.0534 17.3165 11.1764 18.0489 10.391C18.757 9.68204 19.5873 9.10681 20.4999 8.693V10C20.4999 11.6569 21.8431 13 23.4999 13C24.0522 13 24.4999 12.5523 24.4999 12C24.4999 11.4477 24.0522 11 23.4999 11C22.9476 11 22.4999 10.5523 22.4999 10V7.91C23.2884 7.66394 24.0896 7.46032 24.8999 7.3C25.7519 7.128 26.6239 6.963 27.4999 6.806V7C27.4999 7.55229 27.9476 8 28.4999 8C29.0522 8 29.4999 7.55229 29.4999 7V6.473C30.1659 6.373 30.8329 6.281 31.4999 6.208V7C31.4999 7.55229 31.9476 8 32.4999 8C33.0522 8 33.4999 7.55229 33.4999 7V6.042C33.5629 6.042 33.6269 6.03 33.6889 6.026C34.3069 6 34.9079 6 35.4999 6.025V10C35.4999 10.5523 35.9476 11 36.4999 11H38.4999C39.0522 11 39.4999 10.5523 39.4999 10C39.4999 9.44772 39.0522 9 38.4999 9H37.4999V6.243C39.2496 6.53952 40.9414 7.11055 42.5129 7.935C42.5129 7.958 42.4999 7.977 42.4999 8V11C42.4999 11.5523 42.9476 12 43.4999 12C44.0522 12 44.4999 11.5523 44.4999 11V9.09C45.1559 9.515 45.8199 9.979 46.4999 10.502V13C46.4999 13.5523 46.0522 14 45.4999 14C44.9476 14 44.4999 14.4477 44.4999 15C44.4999 15.5523 44.9476 16 45.4999 16C47.1568 16 48.4999 14.6569 48.4999 13V12.315C49.5162 13.4303 50.2618 14.7649 50.6789 16.215C51.018 17.4541 51.2469 18.7206 51.3629 20H49.4999C48.9476 20 48.4999 20.4477 48.4999 21C48.4999 21.5523 48.9476 22 49.4999 22H51.4789C51.4859 22.327 51.5019 22.652 51.4969 22.982C51.4919 23.33 51.4539 23.665 51.4159 24H49.4999C48.9476 24 48.4999 24.4477 48.4999 25C48.4999 25.5523 48.9476 26 49.4999 26H50.9639C50.7185 26.7276 50.3882 27.4237 49.9799 28.074Z" fill="#4CAF50"/>
</g>
<defs>
<clipPath id="clip0_10_6951">
<rect width="60" height="60" fill="white"/>
</clipPath>
</defs>
</svg>
