<svg width="20" height="20" viewBox="0 0 20 20" fill="none" xmlns="http://www.w3.org/2000/svg">
<path d="M16.7161 11.5022C15.7365 11.5022 14.7747 11.349 13.8633 11.0478C13.4166 10.8954 12.8676 11.0352 12.595 11.3151L10.796 12.6732C8.70961 11.5595 7.42444 10.2748 6.32595 8.20404L7.64407 6.45188C7.98653 6.10988 8.10936 5.61029 7.96219 5.14154C7.65969 4.22529 7.50603 3.26392 7.50603 2.28392C7.50607 1.57596 6.93011 1 6.2222 1H3.28387C2.57596 1 2 1.57596 2 2.28387C2 10.3985 8.60157 17 16.7161 17C17.424 17 18 16.424 18 15.7161V12.786C18 12.0781 17.424 11.5022 16.7161 11.5022Z" fill="#4CAF50"/>
</svg>
