<svg width="60" height="60" viewBox="0 0 60 60" fill="none" xmlns="http://www.w3.org/2000/svg">
<g clip-path="url(#clip0_22_1999)">
<path d="M30 52.9688C29.5146 52.9688 29.1211 53.3623 29.1211 53.8477C29.1211 54.333 29.5146 54.7266 30 54.7266C30.4854 54.7266 30.8789 54.333 30.8789 53.8477C30.8789 53.3623 30.4854 52.9688 30 52.9688ZM30 47.6953C29.5146 47.6953 29.1211 48.0888 29.1211 48.5742C29.1211 49.0596 29.5146 49.4531 30 49.4531C30.4854 49.4531 30.8789 49.0596 30.8789 48.5742C30.8789 48.0888 30.4854 47.6953 30 47.6953ZM30 58.2422C29.5146 58.2422 29.1211 58.6357 29.1211 59.1211C29.1211 59.6065 29.5146 60 30 60C30.4854 60 30.8789 59.6065 30.8789 59.1211C30.8789 58.6357 30.4854 58.2422 30 58.2422ZM47.2667 40.2108L43.3545 38.8943C45.5172 37.3539 46.8727 34.8257 46.8727 32.0966C46.8783 32.0854 46.8727 16.8728 46.8727 16.8728C46.8727 12.3674 45.1178 8.13047 41.9312 4.94273C38.7441 1.75535 34.5068 0 30 0C27.1053 0 24.2493 0.745664 21.7407 2.15648C21.3176 2.39438 21.1675 2.93027 21.4054 3.35332C21.6433 3.77648 22.1793 3.92637 22.6022 3.68859C24.8483 2.42555 27.4064 1.75781 30 1.75781C34.0373 1.75781 37.8331 3.33023 40.6882 6.18539C43.5428 9.04113 45.1149 12.8366 45.1149 16.8727V16.8766C44.6044 16.5837 44.0138 16.4152 43.3842 16.4152H42.5397C40.1882 16.0113 37.8818 15.3449 35.6836 14.4326C34.0107 13.7382 32.3849 12.8946 30.8516 11.9252C30.3147 11.5856 29.6141 11.6171 29.1085 12.0036C27.9123 12.9173 26.6207 13.7075 25.2692 14.3521C22.8409 15.5101 20.228 16.204 17.5026 16.4152H16.6159C15.9864 16.4152 15.3958 16.5837 14.8853 16.8766V16.8727C14.8853 12.783 16.4926 8.95254 19.4113 6.08684C19.7577 5.74676 19.7628 5.19035 19.4227 4.84395C19.0827 4.49766 18.5262 4.49238 18.1798 4.83258C14.9217 8.03145 13.1275 12.3075 13.1275 16.8727V32.0965C13.1275 34.8256 14.483 37.3539 16.6457 38.8942L12.7334 40.2108C9.51073 41.2955 7.34546 44.3085 7.34546 47.7082V59.1211C7.34546 59.6065 7.73897 60 8.22437 60C8.70976 60 9.10327 59.6065 9.10327 59.1211V47.7082C9.10327 45.064 10.7875 42.7205 13.2941 41.8768L14.8216 41.3629C14.5955 42.2918 14.4955 43.2493 14.5307 44.1973C14.564 45.0973 14.7158 45.9819 14.9787 46.8398C13.2714 47.3524 12.0236 48.9377 12.0236 50.8098V54.3867C12.0236 55.2716 12.7435 55.9914 13.6282 55.9914H14.6132C15.0986 55.9914 15.4921 55.5979 15.4921 55.1125C15.4921 54.6271 15.0986 54.2336 14.6132 54.2336H13.7813V50.8097C13.7813 49.494 14.8512 48.4236 16.1666 48.4228C16.1673 48.4228 16.1679 48.4229 16.1686 48.4229C16.1693 48.4229 16.17 48.4228 16.1707 48.4228C17.4858 48.4242 18.5553 49.4944 18.5553 50.8097V54.2336H17.7235C17.2381 54.2336 16.8446 54.6271 16.8446 55.1125C16.8446 55.5979 17.2381 55.9914 17.7235 55.9914H18.7084C19.5932 55.9914 20.3131 55.2715 20.3131 54.3867V50.8098C20.3131 48.7346 18.7801 47.0111 16.7873 46.7114C16.489 45.8795 16.3198 45.0145 16.2871 44.1322C16.2439 42.9622 16.4481 41.7736 16.8782 40.6707L22.8736 38.6531L29.1644 44.9437C29.6782 45.4625 30.5546 45.465 31.0703 44.9437L32.8064 43.2076C33.1497 42.8644 33.1497 42.3078 32.8064 41.9647C32.4632 41.6215 31.9067 41.6215 31.5635 41.9647L30.1172 43.4107L24.546 37.8395C25.3721 37.1214 25.7485 36.0267 25.6641 34.9222C27.0102 35.3917 28.4529 35.6494 29.953 35.6546C31.465 35.6599 32.9455 35.4132 34.336 34.9366C34.1924 36.0575 34.7117 37.2773 35.5838 37.9441L34.4577 39.0702C34.1145 39.4134 34.1145 39.97 34.4577 40.3131C34.801 40.6563 35.3575 40.6563 35.7006 40.3131L37.3018 38.712L42.6541 40.5131C43.0588 41.5425 43.2678 42.6559 43.2573 43.7577C43.2478 44.7566 43.0571 45.7654 42.7053 46.7058C40.4205 47.0048 38.6501 48.9629 38.6501 51.328C38.6501 53.8993 40.742 55.9912 43.3134 55.9912C45.8847 55.9912 47.9766 53.8995 47.9766 51.3281C47.9766 49.1755 46.5101 47.3597 44.524 46.8252C44.8369 45.8389 45.0054 44.8023 45.0151 43.7745C45.0233 42.9139 44.9205 42.0475 44.7148 41.2065L46.706 41.8766C49.2128 42.7203 50.8969 45.0639 50.8969 47.7081V59.121C50.8969 59.6064 51.2904 59.9999 51.7758 59.9999C52.2612 59.9999 52.6547 59.6064 52.6547 59.121V47.7081C52.6547 44.3085 50.4894 41.2956 47.2667 40.2108ZM43.3391 18.173H43.3842C44.3364 18.173 45.1111 18.9459 45.1149 19.8971V19.9106C45.1107 20.8746 44.3074 21.6625 43.3391 21.6348V18.173ZM14.8852 19.8973C14.888 18.9327 15.6937 18.1459 16.6609 18.1731V21.635C15.6926 21.6618 14.8893 20.8771 14.8852 19.9109V19.8973ZM23.9063 35.3988C23.9063 36.0287 23.5057 36.5863 22.9088 36.7866L18.8765 38.1436C16.4773 37.1166 14.8853 34.7244 14.8853 32.0966V22.9315C15.4368 23.2502 16.0463 23.4037 16.7158 23.393C17.1331 28.0839 19.9459 32.0963 23.9063 34.1624V35.3988ZM29.959 33.8968C23.5957 33.8748 18.4187 28.6188 18.4187 22.1804V18.095C21.0792 17.8029 23.6346 17.0789 26.0259 15.9387C27.4392 15.2647 28.7918 14.4435 30.0487 13.4967C31.626 14.4833 33.2944 15.3442 35.0098 16.0561C37.1223 16.933 39.3297 17.5952 41.5812 18.0282V22.3157C41.5812 25.4167 40.3715 28.33 38.1749 30.519C35.941 32.7453 33.1505 33.908 29.959 33.8968ZM41.1237 38.1435L37.0905 36.7862C36.4943 36.5863 36.0938 36.0287 36.0938 35.3988V34.1879C37.3039 33.5652 38.4239 32.7526 39.4158 31.7641C41.6897 29.4981 43.0448 26.558 43.2959 23.3927C43.9422 23.402 44.5855 23.2389 45.115 22.9312V32.0964C45.1149 34.7243 43.5229 37.1166 41.1237 38.1435ZM46.2188 51.3281C46.2188 52.9302 44.9154 54.2336 43.3135 54.2336C41.7114 54.2336 40.408 52.9302 40.408 51.3281C40.408 49.7272 41.7096 48.4247 43.3101 48.4228C43.311 48.4228 43.3119 48.4229 43.3129 48.4229C43.3137 48.4229 43.3145 48.4228 43.3153 48.4228C44.9165 48.4238 46.2188 49.7266 46.2188 51.3281ZM35.6833 18.8899C35.1979 18.8899 34.8044 19.2834 34.8044 19.7688V21.7794C34.8044 22.2648 35.1979 22.6583 35.6833 22.6583C36.1687 22.6583 36.5622 22.2648 36.5622 21.7794V19.7688C36.5622 19.2834 36.1687 18.8899 35.6833 18.8899ZM31.248 27.2405C31.0501 27.381 30.6351 27.6197 30.0774 27.6396C29.4483 27.6615 28.9757 27.3988 28.7513 27.2398C28.3553 26.9591 27.8066 27.0527 27.526 27.4488C27.2453 27.8448 27.3389 28.3935 27.735 28.6741C28.124 28.9498 28.9233 29.3988 30.0007 29.3988C30.9447 29.3988 31.8212 28.9894 32.2658 28.6736C32.6616 28.3924 32.7545 27.8438 32.4734 27.448C32.1924 27.0523 31.6437 26.9593 31.248 27.2405ZM24.3168 18.8899C23.8314 18.8899 23.4379 19.2834 23.4379 19.7688V21.7794C23.4379 22.2648 23.8314 22.6583 24.3168 22.6583C24.8022 22.6583 25.1957 22.2648 25.1957 21.7794V19.7688C25.1957 19.2834 24.8023 18.8899 24.3168 18.8899Z" fill="#4CAF50"/>
</g>
<defs>
<clipPath id="clip0_22_1999">
<rect width="60" height="60" fill="white"/>
</clipPath>
</defs>
</svg>
