<svg width="60" height="60" viewBox="0 0 60 60" fill="none" xmlns="http://www.w3.org/2000/svg">
<path d="M29.9796 33.3057C22.6669 33.0673 20.9132 26.8062 20.5377 24.7849C19.8338 24.6217 19.2065 24.2233 18.7596 23.6554C18.2495 22.9524 18.0129 22.0877 18.094 21.223C18.036 20.757 18.0765 20.2841 18.2128 19.8348C18.3491 19.3855 18.5782 18.9698 18.8853 18.6146C19.0587 18.4369 19.2579 18.2865 19.4764 18.1686C18.1173 15.9743 17.4478 13.4227 17.5548 10.8438C18.4013 4.79512 23.2759 4.20647 24.8026 4.17242C25.5053 3.35514 26.3837 2.70736 27.3721 2.27755C29.2235 1.53074 31.2699 1.41672 33.1929 1.95323C36.9729 2.93999 39.4937 4.83242 40.6896 7.57864C42.3923 11.4819 40.8988 15.9746 40.041 17.9919C40.3682 18.0982 40.6697 18.2713 40.9264 18.5003C41.2757 18.8549 41.539 19.2851 41.6959 19.7576C41.8528 20.23 41.8991 20.7322 41.8313 21.2254C41.9131 22.0901 41.6767 22.955 41.1664 23.6578C40.7191 24.2256 40.0916 24.624 39.3875 24.7873C39.0121 26.8062 37.2623 33.0673 29.9796 33.3057ZM20.8313 19.4651C20.5437 19.4517 20.2624 19.5519 20.048 19.744C19.8996 19.9519 19.7939 20.1871 19.737 20.4361C19.6801 20.6851 19.6731 20.9429 19.7164 21.1946C19.7198 21.2487 19.7179 21.303 19.7107 21.3567C19.6667 21.8221 19.7868 22.2883 20.0505 22.6743C20.2149 22.858 20.4143 23.0069 20.6371 23.1125C20.8599 23.218 21.1015 23.278 21.3477 23.2889C21.5331 23.3108 21.7053 23.396 21.8351 23.5302C21.965 23.6643 22.0446 23.8391 22.0605 24.0251C22.0872 24.3267 22.8064 31.4497 29.9813 31.6849C37.1164 31.4497 37.8388 24.3267 37.8656 24.0235C37.8818 23.8378 37.9616 23.6633 38.0914 23.5295C38.2212 23.3957 38.3932 23.3108 38.5783 23.2889C38.8246 23.2781 39.0662 23.2182 39.289 23.1126C39.5118 23.0071 39.7112 22.858 39.8756 22.6743C40.1404 22.2863 40.2606 21.8178 40.2153 21.3503C40.2086 21.2981 40.2067 21.2455 40.2096 21.193C40.2535 20.933 40.2436 20.6668 40.1807 20.4108C40.1179 20.1548 40.0032 19.9144 39.844 19.7043C39.5907 19.5178 39.2756 19.4354 38.9634 19.474C38.8134 19.5007 38.6589 19.4845 38.5176 19.4273C38.3763 19.3701 38.2541 19.2743 38.1648 19.1508C38.0755 19.0273 38.0228 18.8812 38.0127 18.7291C38.0027 18.577 38.0357 18.4252 38.108 18.2911C38.138 18.2343 41.108 12.5976 39.1994 8.21674C38.211 5.95296 36.0534 4.37269 32.785 3.51972C31.2142 3.07517 29.5406 3.16066 28.0232 3.76296C27.1599 4.13489 26.4074 4.72367 25.8388 5.47215C25.757 5.58349 25.6478 5.67184 25.5218 5.72865C25.3958 5.78547 25.2573 5.80883 25.1196 5.79647C24.9096 5.77945 19.945 5.45837 19.1667 11.0084C19.1667 11.0084 18.9421 15.4232 21.4994 18.0989C21.6108 18.2154 21.685 18.3625 21.7124 18.5214C21.7399 18.6802 21.7193 18.8437 21.6534 18.9908C21.5927 19.1417 21.4856 19.2694 21.3476 19.3556C21.2096 19.4417 21.0478 19.4817 20.8856 19.47L20.8313 19.4651Z" fill="#4CAF50"/>
<path d="M38.8224 19.4848C38.6131 19.485 38.4119 19.4042 38.2608 19.2595C38.1097 19.1147 38.0204 18.9171 38.0116 18.708C38.0019 18.498 37.7505 13.5999 34.0938 13.1288C32.4212 13.3412 30.7229 13.2088 29.1034 12.7397C27.484 12.2706 25.9779 11.4748 24.6778 10.4013C23.644 11.1788 21.2619 13.5423 21.72 18.5831C21.726 18.7895 21.6532 18.9903 21.5162 19.1448C21.3793 19.2993 21.1886 19.3957 20.983 19.4144C20.7775 19.4331 20.5725 19.3727 20.4099 19.2455C20.2473 19.1183 20.1394 18.9339 20.1081 18.7299C19.4359 11.3345 24.1848 8.76747 24.3867 8.66207C24.537 8.58364 24.7081 8.55428 24.8759 8.57814C25.0438 8.60199 25.1999 8.67785 25.3224 8.79504C26.4781 9.84179 27.8462 10.6266 29.3332 11.0958C30.8202 11.565 32.3909 11.7076 33.9381 11.5137C34.0123 11.5017 34.0878 11.499 34.1627 11.5056C38.2848 11.9345 39.544 16.3631 39.6332 18.6407C39.6416 18.8553 39.5645 19.0643 39.4188 19.2221C39.2732 19.3799 39.071 19.4735 38.8565 19.4823L38.8224 19.4848Z" fill="#4CAF50"/>
<path d="M52.7748 58.3784H7.22512C7.01008 58.3784 6.80384 58.2929 6.65179 58.1409C6.49973 57.9888 6.41431 57.7826 6.41431 57.5676V48.5286C6.4201 45.6718 7.5586 42.9338 9.58014 40.9152C11.6017 38.8965 14.3412 37.762 17.1981 37.7603H18.7548C18.9699 37.7603 19.1761 37.8457 19.3282 37.9977C19.4802 38.1498 19.5657 38.356 19.5657 38.5711C19.5657 38.7861 19.4802 38.9923 19.3282 39.1444C19.1761 39.2965 18.9699 39.3819 18.7548 39.3819H17.1981C14.7712 39.3832 12.4438 40.3468 10.7263 42.0614C9.0088 43.776 8.04129 46.1017 8.03593 48.5286V56.7567H51.964V48.5286C51.9612 46.1036 50.9967 43.7787 49.2819 42.064C47.5672 40.3492 45.2423 39.3847 42.8173 39.3819H41.1486C40.9336 39.3819 40.7274 39.2965 40.5753 39.1444C40.4232 38.9923 40.3378 38.7861 40.3378 38.5711C40.3378 38.356 40.4232 38.1498 40.5753 37.9977C40.7274 37.8457 40.9336 37.7603 41.1486 37.7603H42.8173C45.672 37.7643 48.4086 38.9002 50.4272 40.9187C52.4458 42.9373 53.5816 45.6739 53.5857 48.5286V57.5676C53.5857 57.7826 53.5002 57.9888 53.3482 58.1409C53.1961 58.2929 52.9899 58.3784 52.7748 58.3784Z" fill="#4CAF50"/>
<path d="M32.7096 58.3784C32.5929 58.3784 32.4776 58.3532 32.3715 58.3046C32.2654 58.2559 32.1711 58.185 32.095 58.0965C32.0188 58.0081 31.9627 57.9042 31.9304 57.7921C31.8981 57.6799 31.8903 57.5622 31.9077 57.4468L35.1891 35.7308C35.2065 35.6159 35.2483 35.5061 35.3118 35.4088C35.3754 35.3115 35.4591 35.229 35.5572 35.1669C35.6554 35.1048 35.7658 35.0645 35.8809 35.0487C35.9961 35.033 36.1132 35.0422 36.2245 35.0757L41.8872 36.7824C42 36.8164 42.104 36.8746 42.192 36.9529C42.28 37.0312 42.3499 37.1277 42.3968 37.2357C42.4437 37.3438 42.4665 37.4607 42.4637 37.5785C42.4608 37.6962 42.4323 37.8119 42.3802 37.9176L40.1293 42.4338L41.4348 43.8989C41.5504 44.0297 41.6208 44.1943 41.6354 44.3683C41.65 44.5423 41.6081 44.7164 41.5158 44.8646L33.3988 57.9941C33.3262 58.1115 33.2247 58.2085 33.1041 58.2757C32.9835 58.343 32.8477 58.3783 32.7096 58.3784ZM36.6534 36.8984L34.1034 53.7738L39.822 44.5305L38.5548 43.1076C38.4469 42.9867 38.3778 42.8362 38.3563 42.6757C38.3347 42.5151 38.3618 42.3518 38.4339 42.2068L40.4999 38.0603L36.6534 36.8984Z" fill="#4CAF50"/>
<path d="M27.197 58.3784C27.0587 58.3785 26.9228 58.3432 26.802 58.2759C26.6813 58.2087 26.5797 58.1116 26.507 57.9941L18.3875 44.867C18.2953 44.7188 18.2533 44.5447 18.2679 44.3708C18.2825 44.1968 18.3529 44.0321 18.4686 43.9014L19.774 42.4362L17.5232 37.92C17.4711 37.8144 17.4426 37.6987 17.4397 37.5809C17.4368 37.4632 17.4596 37.3462 17.5066 37.2382C17.5535 37.1301 17.6234 37.0336 17.7114 36.9553C17.7994 36.8771 17.9034 36.8189 18.0162 36.7849L23.6789 35.0781C23.7901 35.0448 23.9072 35.0357 24.0222 35.0515C24.1372 35.0673 24.2475 35.1076 24.3456 35.1697C24.4437 35.2318 24.5273 35.3143 24.5908 35.4115C24.6542 35.5087 24.6961 35.6185 24.7135 35.7333L27.9964 57.4492C28.0134 57.5642 28.0055 57.6815 27.9731 57.7932C27.9408 57.9049 27.8848 58.0083 27.8089 58.0964C27.7331 58.1845 27.6392 58.2553 27.5336 58.304C27.4281 58.3526 27.3132 58.378 27.197 58.3784ZM20.0845 44.5281L25.8032 53.7714L23.2532 36.8984L19.4067 38.0579L21.4718 42.2043C21.5441 42.3493 21.5713 42.5126 21.5499 42.6731C21.5285 42.8337 21.4595 42.9842 21.3518 43.1051L20.0845 44.5281Z" fill="#4CAF50"/>
<path d="M30.014 43.2608C28.2608 43.2595 26.5093 43.1534 24.7688 42.9429C24.6609 42.9331 24.556 42.9016 24.4605 42.8505C24.3649 42.7994 24.2805 42.7297 24.2124 42.6454C24.1442 42.5611 24.0936 42.464 24.0636 42.3599C24.0337 42.2557 24.0248 42.1466 24.0377 42.039C24.0507 41.9314 24.085 41.8274 24.1388 41.7333C24.1925 41.6392 24.2646 41.5568 24.3508 41.4911C24.4369 41.4253 24.5354 41.3775 24.6403 41.3504C24.7453 41.3233 24.8546 41.3176 24.9618 41.3335C28.2755 41.741 31.6267 41.741 34.9405 41.3335C35.1518 41.3106 35.3636 41.3717 35.5304 41.5035C35.6972 41.6353 35.8055 41.8273 35.8321 42.0382C35.8586 42.2491 35.8013 42.462 35.6725 42.6311C35.5436 42.8001 35.3536 42.9118 35.1432 42.9421C33.4418 43.1556 31.7287 43.2621 30.014 43.2608Z" fill="#4CAF50"/>
<path d="M35.9926 36.6626C35.8664 36.6621 35.7421 36.6322 35.6295 36.5752C35.5168 36.5181 35.4191 36.4356 35.344 36.3342C34.1391 34.7053 33.921 31.4766 33.9008 31.1142C33.8884 30.8996 33.9617 30.6889 34.1046 30.5283C34.2475 30.3678 34.4483 30.2705 34.6629 30.258C34.8769 30.2479 35.0864 30.3221 35.2464 30.4645C35.4064 30.607 35.5043 30.8064 35.5191 31.0201C35.5686 31.8731 35.8686 34.3177 36.647 35.3701C36.7359 35.4906 36.7898 35.6334 36.8026 35.7826C36.8153 35.9318 36.7865 36.0816 36.7194 36.2155C36.6522 36.3493 36.5493 36.4619 36.422 36.5409C36.2947 36.6198 36.1481 36.6619 35.9983 36.6626H35.9926Z" fill="#4CAF50"/>
<path d="M23.9141 36.6625C23.7644 36.6618 23.6177 36.6197 23.4905 36.5407C23.3632 36.4618 23.2603 36.3492 23.1931 36.2154C23.1259 36.0815 23.0971 35.9317 23.1099 35.7825C23.1227 35.6333 23.1765 35.4905 23.2655 35.37C24.0455 34.316 24.3447 31.8722 24.3941 31.02C24.4003 30.9136 24.4274 30.8093 24.4738 30.7133C24.5203 30.6173 24.5852 30.5314 24.6649 30.4605C24.7445 30.3896 24.8374 30.335 24.9381 30.3C25.0388 30.2649 25.1455 30.2501 25.252 30.2562C25.3584 30.2624 25.4627 30.2895 25.5587 30.336C25.6547 30.3824 25.7406 30.4473 25.8115 30.527C25.8824 30.6066 25.937 30.6995 25.972 30.8002C26.0071 30.901 26.0219 31.0076 26.0157 31.1141C25.9955 31.4765 25.7725 34.7052 24.5725 36.3341C24.4964 36.4368 24.3971 36.5202 24.2827 36.5772C24.1683 36.6343 24.042 36.6635 23.9141 36.6625Z" fill="#4CAF50"/>
<path d="M46.3419 47.0142C46.1309 47.0143 45.9282 46.9321 45.7768 46.7851C45.6254 46.638 45.5373 46.4378 45.5311 46.2269C45.3795 40.9469 43.3719 39.2855 43.3525 39.2693C43.185 39.1363 43.0763 38.9429 43.0499 38.7306C43.0236 38.5183 43.0815 38.3042 43.2114 38.1342C43.3404 37.9656 43.5306 37.8547 43.7409 37.8255C43.9511 37.7964 44.1644 37.8513 44.3344 37.9785C44.4414 38.0596 46.9752 40.0274 47.1528 46.1798C47.1589 46.3946 47.0795 46.6031 46.932 46.7593C46.7845 46.9156 46.5811 47.007 46.3663 47.0134L46.3419 47.0142Z" fill="#4CAF50"/>
<path d="M46.3461 51.8011C45.7121 51.8013 45.0924 51.6135 44.5652 51.2614C44.038 50.9093 43.6271 50.4088 43.3843 49.8231C43.1416 49.2375 43.078 48.593 43.2016 47.9712C43.3252 47.3494 43.6304 46.7782 44.0786 46.3299C44.5268 45.8816 45.0979 45.5763 45.7197 45.4525C46.3414 45.3288 46.9859 45.3922 47.5716 45.6348C48.1573 45.8773 48.658 46.2881 49.0102 46.8152C49.3624 47.3423 49.5504 47.9621 49.5504 48.596C49.5495 49.4457 49.2117 50.2603 48.611 50.8611C48.0103 51.462 47.1957 51.8001 46.3461 51.8011ZM46.3461 47.0125C46.0329 47.0123 45.7266 47.1051 45.4661 47.279C45.2056 47.4529 45.0025 47.7001 44.8825 47.9895C44.7626 48.2788 44.7311 48.5972 44.7921 48.9044C44.8531 49.2117 45.0038 49.4939 45.2253 49.7154C45.4467 49.937 45.7289 50.0879 46.036 50.149C46.3432 50.2102 46.6617 50.1789 46.9511 50.0591C47.2405 49.9392 47.4878 49.7363 47.6619 49.4758C47.8359 49.2154 47.9288 48.9092 47.9288 48.596C47.9284 48.1763 47.7615 47.7739 47.4648 47.4771C47.1681 47.1802 46.7658 47.0131 46.3461 47.0125Z" fill="#4CAF50"/>
<path d="M13.0395 47.014C12.8341 47.0145 12.6362 46.937 12.4856 46.7972C12.3351 46.6574 12.2433 46.4657 12.2287 46.2608C11.7868 40.0378 15.2158 38.0489 15.3617 37.967C15.549 37.8613 15.7706 37.8343 15.9778 37.892C16.185 37.9497 16.3607 38.0874 16.4664 38.2747C16.5721 38.462 16.5991 38.6836 16.5414 38.8908C16.4837 39.098 16.346 39.2737 16.1587 39.3794C16.0355 39.4524 13.4831 41.0278 13.8455 46.1464C13.8607 46.3609 13.79 46.5727 13.649 46.7351C13.5081 46.8975 13.3084 46.9972 13.0939 47.0124L13.0395 47.014Z" fill="#4CAF50"/>
<path d="M11.3993 53.5061C11.2738 53.5067 11.1499 53.4782 11.0374 53.4227C10.9248 53.3673 10.8267 53.2865 10.7506 53.1867C10.3549 52.6669 10.0633 52.0755 9.89199 51.4451C9.5156 50.217 9.63908 48.8901 10.2356 47.7526C10.8321 46.6152 11.8535 45.7591 13.0777 45.3705C13.6583 45.2072 14.2657 45.1612 14.8643 45.2353C15.4629 45.3093 16.0408 45.5019 16.5641 45.8018C17.4813 46.3317 18.215 47.1289 18.667 48.0869C19.1191 49.0449 19.268 50.118 19.0939 51.1629C19.0586 51.375 18.9405 51.5645 18.7656 51.6895C18.5906 51.8146 18.3732 51.8651 18.161 51.8298C17.9489 51.7945 17.7595 51.6764 17.6344 51.5015C17.5093 51.3265 17.4589 51.1091 17.4941 50.897C17.6132 50.181 17.5121 49.4458 17.2043 48.7885C16.8965 48.1313 16.3965 47.5829 15.7704 47.2159C15.4328 47.0209 15.0597 46.8952 14.673 46.8461C14.2862 46.7969 13.8936 46.8253 13.5179 46.9297C12.7055 47.2014 12.0329 47.7825 11.6462 48.5469C11.2594 49.3113 11.1896 50.1974 11.452 51.0129C11.5693 51.4445 11.7692 51.8493 12.0406 52.2048C12.1319 52.325 12.1879 52.4682 12.2022 52.6185C12.2165 52.7687 12.1886 52.92 12.1216 53.0552C12.0546 53.1905 11.9512 53.3043 11.823 53.384C11.6948 53.4637 11.547 53.506 11.396 53.5061H11.3993Z" fill="#4CAF50"/>
<path d="M18.3049 51.8425C18.2733 51.8425 18.2408 51.8425 18.2084 51.8376L17.2946 51.7298C17.1888 51.7172 17.0866 51.684 16.9936 51.6319C16.9007 51.5798 16.819 51.5099 16.753 51.4262C16.6871 51.3425 16.6383 51.2467 16.6095 51.1441C16.5806 51.0416 16.5722 50.9344 16.5848 50.8286C16.5973 50.7228 16.6306 50.6205 16.6827 50.5276C16.7348 50.4347 16.8047 50.3529 16.8884 50.287C17.0574 50.1539 17.2723 50.0933 17.486 50.1187L18.3998 50.2274C18.605 50.2518 18.7931 50.3536 18.9258 50.5121C19.0584 50.6706 19.1255 50.8737 19.1134 51.08C19.1013 51.2863 19.0109 51.4802 18.8606 51.6221C18.7103 51.7639 18.5116 51.8431 18.3049 51.8433V51.8425Z" fill="#4CAF50"/>
<path d="M11.3991 53.5135C11.2087 53.5138 11.0243 53.447 10.8782 53.325C10.7321 53.203 10.6336 53.0334 10.5999 52.846C10.5663 52.6586 10.5996 52.4654 10.6942 52.3001C10.7887 52.1349 10.9383 52.0082 11.1169 51.9422L12.0899 51.583C12.1897 51.5457 12.2959 51.5285 12.4024 51.5322C12.5089 51.536 12.6136 51.5607 12.7105 51.605C12.8074 51.6492 12.8947 51.7121 12.9673 51.79C13.04 51.868 13.0965 51.9595 13.1338 52.0593C13.1711 52.1592 13.1883 52.2653 13.1845 52.3718C13.1808 52.4783 13.1561 52.583 13.1118 52.6799C13.0676 52.7769 13.0047 52.8642 12.9267 52.9368C12.8488 53.0094 12.7573 53.066 12.6575 53.1033L11.6845 53.4633C11.5931 53.497 11.4965 53.514 11.3991 53.5135Z" fill="#4CAF50"/>
</svg>
