<svg width="60" height="60" viewBox="0 0 60 60" fill="none" xmlns="http://www.w3.org/2000/svg">
<path d="M23.9034 5.1099C24.4735 5.1099 24.9357 4.64772 24.9357 4.07759C24.9357 3.50747 24.4735 3.04529 23.9034 3.04529C23.3333 3.04529 22.8711 3.50747 22.8711 4.07759C22.8711 4.64772 23.3333 5.1099 23.9034 5.1099Z" fill="white"/>
<path d="M46.5927 34.6189C43.7277 34.6189 41.3966 36.9498 41.3966 39.8149V50.0386C41.3966 54.3928 37.8541 57.9354 33.4998 57.9354C29.5035 57.9354 26.1932 54.9506 25.6756 51.0938H32.728C33.2982 51.0938 33.7603 50.6316 33.7603 50.0614V45.0807L36.7009 43.3677C38.5009 42.319 39.5126 40.3041 39.2777 38.2343L38.5277 31.6181C38.2747 29.387 38.2072 27.1192 38.3265 24.878L39.5933 1.0875C39.6083 0.804492 39.5065 0.528047 39.3116 0.322383C39.117 0.116484 38.8461 0 38.5629 0H19.9528C19.3826 0 18.9205 0.462188 18.9205 1.0323C18.9205 1.60242 19.3826 2.06461 19.9528 2.06461H35.9491C32.5623 4.83949 28.3684 6.34383 23.9031 6.34383C19.438 6.34383 15.2438 4.83949 11.8568 2.06461H16.2367C16.8069 2.06461 17.269 1.60242 17.269 1.0323C17.269 0.462188 16.8069 0 16.2367 0H9.24317C8.95981 0 8.68899 0.116484 8.49411 0.322031C8.29922 0.527578 8.19739 0.804141 8.21239 1.08715L9.47918 24.8776C9.59848 27.1199 9.53075 29.3876 9.27797 31.618L8.52786 38.2342C8.29336 40.3042 9.30481 42.3192 11.1047 43.3676L14.0454 45.0807V50.0614C14.0454 50.6316 14.5075 51.0938 15.0777 51.0938H23.5949C24.1235 56.0921 28.3635 60 33.4998 60C38.9925 60 43.4611 55.5313 43.4611 50.0387V39.815C43.4611 38.0884 44.8658 36.6837 46.5926 36.6837C48.3193 36.6837 49.7241 38.0884 49.7241 39.815V58.9677C49.7241 59.5378 50.1861 60 50.7564 60C51.3266 60 51.7887 59.5378 51.7887 58.9677V39.8149C51.7888 36.9498 49.4579 34.6189 46.5927 34.6189ZM23.5388 49.0293H16.1101V45.5198H23.5388V49.0293ZM24.5708 40.152C24.0006 40.152 23.5385 40.6141 23.5385 41.1843V43.4551H15.3564L12.1438 41.5836C11.0509 40.9471 10.4367 39.7236 10.5791 38.4667L11.3292 31.8505C11.595 29.507 11.666 27.1239 11.5406 24.7679L10.4109 3.54832C14.1888 6.69867 18.8918 8.40844 23.9032 8.40844C28.9143 8.40844 33.6172 6.69867 37.3952 3.54832L36.2654 24.7679C36.1399 27.1232 36.2109 29.5061 36.4768 31.8504L37.2268 38.4667C37.3693 39.7234 36.7552 40.9471 35.6622 41.5836L32.4497 43.4551H25.6032V41.1843C25.6031 40.6141 25.1411 40.152 24.5708 40.152ZM25.6031 45.5196H31.6961V49.029H25.6031V45.5196Z" fill="white"/>
<path d="M18.0318 19.5076H14.9351C14.3649 19.5076 13.9028 19.9698 13.9028 20.5399C13.9028 21.11 14.3649 21.5722 14.9351 21.5722H18.0318C18.6021 21.5722 19.0641 21.11 19.0641 20.5399C19.064 19.9698 18.6021 19.5076 18.0318 19.5076Z" fill="white"/>
<path d="M18.0318 23.9164H14.9351C14.3649 23.9164 13.9028 24.3786 13.9028 24.9487C13.9028 25.5188 14.3649 25.981 14.9351 25.981H18.0318C18.6021 25.981 19.0641 25.5188 19.0641 24.9487C19.064 24.3786 18.6021 23.9164 18.0318 23.9164Z" fill="white"/>
<path d="M18.0318 32.7336H14.9351C14.3649 32.7336 13.9028 33.1958 13.9028 33.7659C13.9028 34.3361 14.3649 34.7983 14.9351 34.7983H18.0318C18.6019 34.7983 19.0641 34.3361 19.0641 33.7659C19.064 33.1958 18.6021 32.7336 18.0318 32.7336Z" fill="white"/>
<path d="M18.0318 28.3248H14.9351C14.3649 28.3248 13.9028 28.787 13.9028 29.3571C13.9028 29.9273 14.3649 30.3894 14.9351 30.3894H18.0318C18.6021 30.3894 19.0641 29.9273 19.0641 29.3571C19.064 28.787 18.6021 28.3248 18.0318 28.3248Z" fill="white"/>
</svg>
