<svg width="60" height="60" viewBox="0 0 60 60" fill="none" xmlns="http://www.w3.org/2000/svg">
<path d="M32.9998 51.9997C32.4475 51.9997 31.9998 52.4475 31.9998 52.9997V58.9997C31.9998 59.5525 32.4475 59.9997 32.9998 59.9997H48.9997C49.5519 59.9997 49.9997 59.5525 49.9997 58.9997V52.9997C49.9997 52.4475 49.5519 51.9997 48.9997 51.9997H44.9997V47.9998H48.9997C49.5519 47.9998 49.9997 47.5525 49.9997 46.9998V14.9999C49.9997 14.4477 49.5519 13.9999 48.9997 13.9999H44.9997V2.99994C44.9997 2.56977 44.7243 2.18745 44.3156 2.05122L38.3156 0.051226C38.011 -0.0503361 37.6755 0.000933241 37.4148 0.188921C37.154 0.376908 36.9997 0.678665 36.9997 0.999953V13.9999H32.9998C32.4475 13.9999 31.9998 14.4477 31.9998 14.9999V46.9998C31.9998 47.5525 32.4475 47.9998 32.9998 47.9998H36.9997V51.9997H32.9998ZM47.9997 57.9997H33.9997V53.9997H47.9997V57.9997ZM38.9997 2.38715L42.9997 3.72113V13.9999H38.9997V2.38715ZM33.9997 15.9999H47.9997V45.9998H33.9997V15.9999ZM38.9997 47.9998H42.9997V51.9997H38.9997V47.9998Z" fill="#4CAF50"/>
<path d="M32.9998 51.9997C32.4475 51.9997 31.9998 52.4475 31.9998 52.9997V58.9997C31.9998 59.5525 32.4475 59.9997 32.9998 59.9997H48.9997C49.5519 59.9997 49.9997 59.5525 49.9997 58.9997V52.9997C49.9997 52.4475 49.5519 51.9997 48.9997 51.9997H44.9997V47.9998H48.9997C49.5519 47.9998 49.9997 47.5525 49.9997 46.9998V14.9999C49.9997 14.4477 49.5519 13.9999 48.9997 13.9999H44.9997V2.99994C44.9997 2.56977 44.7243 2.18745 44.3156 2.05122L38.3156 0.051226C38.011 -0.0503361 37.6755 0.000933241 37.4148 0.188921C37.154 0.376908 36.9997 0.678665 36.9997 0.999953V13.9999H32.9998C32.4475 13.9999 31.9998 14.4477 31.9998 14.9999V46.9998C31.9998 47.5525 32.4475 47.9998 32.9998 47.9998H36.9997V51.9997H32.9998ZM47.9997 57.9997H33.9997V53.9997H47.9997V57.9997ZM38.9997 2.38715L42.9997 3.72113V13.9999H38.9997V2.38715ZM33.9997 15.9999H47.9997V45.9998H33.9997V15.9999ZM38.9997 47.9998H42.9997V51.9997H38.9997V47.9998Z" fill="#4CAF50"/>
<path d="M36 39.9998H42V41.9998H36V39.9998Z" fill="#4CAF50"/>
<path d="M36 39.9998H42V41.9998H36V39.9998Z" fill="#4CAF50"/>
<path d="M36 33.9998H42V35.9998H36V33.9998Z" fill="#4CAF50"/>
<path d="M36 33.9998H42V35.9998H36V33.9998Z" fill="#4CAF50"/>
<path d="M36 28H42V30H36V28Z" fill="#4CAF50"/>
<path d="M36 28H42V30H36V28Z" fill="#4CAF50"/>
<path d="M36 22H42V24H36V22Z" fill="#4CAF50"/>
<path d="M36 22H42V24H36V22Z" fill="#4CAF50"/>
<path d="M14 53.9998C18.4185 53.9998 22 50.4182 22 45.9998C22 41.5818 18.4185 37.9998 14 37.9998C9.58203 37.9998 6 41.5818 6 45.9998C6.00488 50.4163 9.58398 53.9949 14 53.9998ZM14 39.9998C16.9268 40.0037 19.4253 42.115 19.917 44.9998H8.08301C8.5752 42.115 11.0732 40.0037 14 39.9998ZM19.917 46.9998C19.4316 49.8894 16.9302 52.0056 14 52.0056C11.0703 52.0056 8.56885 49.8894 8.08301 46.9998H19.917Z" fill="#4CAF50"/>
<path d="M14 53.9998C18.4185 53.9998 22 50.4182 22 45.9998C22 41.5818 18.4185 37.9998 14 37.9998C9.58203 37.9998 6 41.5818 6 45.9998C6.00488 50.4163 9.58398 53.9949 14 53.9998ZM14 39.9998C16.9268 40.0037 19.4253 42.115 19.917 44.9998H8.08301C8.5752 42.115 11.0732 40.0037 14 39.9998ZM19.917 46.9998C19.4316 49.8894 16.9302 52.0056 14 52.0056C11.0703 52.0056 8.56885 49.8894 8.08301 46.9998H19.917Z" fill="#4CAF50"/>
<path d="M27.2063 23.9321C25.054 21.9541 21.9934 21.3076 19.2249 22.2461C16.4558 23.1851 14.4197 25.5591 13.9138 28.4385C13.408 31.3179 14.5134 34.2441 16.7961 36.0703C18.949 38.0483 22.0095 38.6948 24.7781 37.7563C27.5466 36.8174 29.5833 34.4433 30.0891 31.564C30.5945 28.6846 29.4895 25.7583 27.2063 23.9321ZM16.0002 30C16.0017 27.8389 17.1653 25.8452 19.0466 24.7812C20.928 23.7173 23.2366 23.7476 25.0896 24.8603L17.3943 33.8374C16.4939 32.7612 16.0007 31.4033 16.0002 30ZM22.0002 36C20.9119 35.999 19.844 35.7016 18.9114 35.1401L26.6116 26.1631C28.1047 27.9507 28.4275 30.4414 27.4387 32.5503C26.4504 34.6592 24.3294 36.0044 22.0002 36Z" fill="#4CAF50"/>
<path d="M27.2063 23.9321C25.054 21.9541 21.9934 21.3076 19.2249 22.2461C16.4558 23.1851 14.4197 25.5591 13.9138 28.4385C13.408 31.3179 14.5134 34.2441 16.7961 36.0703C18.949 38.0483 22.0095 38.6948 24.7781 37.7563C27.5466 36.8174 29.5833 34.4433 30.0891 31.564C30.5945 28.6846 29.4895 25.7583 27.2063 23.9321ZM16.0002 30C16.0017 27.8389 17.1653 25.8452 19.0466 24.7812C20.928 23.7173 23.2366 23.7476 25.0896 24.8603L17.3943 33.8374C16.4939 32.7612 16.0007 31.4033 16.0002 30ZM22.0002 36C20.9119 35.999 19.844 35.7016 18.9114 35.1401L26.6116 26.1631C28.1047 27.9507 28.4275 30.4414 27.4387 32.5503C26.4504 34.6592 24.3294 36.0044 22.0002 36Z" fill="#4CAF50"/>
<path d="M8 10H10V12H8V10Z" fill="#4CAF50"/>
<path d="M8 10H10V12H8V10Z" fill="#4CAF50"/>
<path d="M14 13.9998H16V15.9997H14V13.9998Z" fill="#4CAF50"/>
<path d="M14 13.9998H16V15.9997H14V13.9998Z" fill="#4CAF50"/>
<path d="M4.00024 25.9998H6.00024V27.9998H4.00024V25.9998Z" fill="#4CAF50"/>
<path d="M4.00024 25.9998H6.00024V27.9998H4.00024V25.9998Z" fill="#4CAF50"/>
<path d="M26.0002 48H28.0002V50H26.0002V48Z" fill="#4CAF50"/>
<path d="M26.0002 48H28.0002V50H26.0002V48Z" fill="#4CAF50"/>
<path d="M52 22H54V24H52V22Z" fill="#4CAF50"/>
<path d="M52 22H54V24H52V22Z" fill="#4CAF50"/>
<path d="M54 28H56V30H54V28Z" fill="#4CAF50"/>
<path d="M54 28H56V30H54V28Z" fill="#4CAF50"/>
<path d="M24 51.9998H26V53.9998H24V51.9998Z" fill="#4CAF50"/>
<path d="M24 51.9998H26V53.9998H24V51.9998Z" fill="#4CAF50"/>
<path d="M26.0002 53.9998H28.0002V55.9998H26.0002V53.9998Z" fill="#4CAF50"/>
<path d="M26.0002 53.9998H28.0002V55.9998H26.0002V53.9998Z" fill="#4CAF50"/>
<path d="M28.0002 8H30.0002V10H28.0002V8Z" fill="#4CAF50"/>
<path d="M28.0002 8H30.0002V10H28.0002V8Z" fill="#4CAF50"/>
<path d="M44 24H46V19C46 18.4478 45.5522 18 45 18H36V20H44V24Z" fill="#4CAF50"/>
<path d="M44 24H46V19C46 18.4478 45.5522 18 45 18H36V20H44V24Z" fill="#4CAF50"/>
<path d="M44 25.9998H46V27.9998H44V25.9998Z" fill="#4CAF50"/>
<path d="M44 25.9998H46V27.9998H44V25.9998Z" fill="#4CAF50"/>
</svg>
