<svg width="35" height="35" viewBox="0 0 35 35" fill="none" xmlns="http://www.w3.org/2000/svg">
<g clip-path="url(#clip0_10_6450)">
<path d="M19.2498 30.3333C18.9277 30.3333 18.6665 30.5945 18.6665 30.9166V34.4166C18.6665 34.739 18.9277 35 19.2498 35H28.5831C28.9053 35 29.1665 34.739 29.1665 34.4166V30.9166C29.1665 30.5945 28.9053 30.3333 28.5831 30.3333H26.2498V28H28.5831C28.9053 28 29.1665 27.7391 29.1665 27.4167V8.75006C29.1665 8.42792 28.9053 8.16673 28.5831 8.16673H26.2498V1.75009C26.2498 1.49915 26.0892 1.27613 25.8508 1.19667L22.3508 0.0300039C22.173 -0.0292407 21.9774 0.000666461 21.8253 0.110326C21.6732 0.219985 21.5832 0.39601 21.5832 0.583428V8.16673H19.2498C18.9277 8.16673 18.6665 8.42792 18.6665 8.75006V27.4167C18.6665 27.7391 18.9277 28 19.2498 28H21.5832V30.3333H19.2498ZM27.9998 33.8333H19.8332V31.5H27.9998V33.8333ZM22.7498 1.39263L25.0831 2.17078V8.16673H22.7498V1.39263ZM19.8332 9.33339H27.9998V26.8333H19.8332V9.33339ZM22.7498 28H25.0831V30.3333H22.7498V28Z" fill="#4CAF50"/>
<path d="M19.2498 30.3333C18.9277 30.3333 18.6665 30.5945 18.6665 30.9166V34.4166C18.6665 34.739 18.9277 35 19.2498 35H28.5831C28.9053 35 29.1665 34.739 29.1665 34.4166V30.9166C29.1665 30.5945 28.9053 30.3333 28.5831 30.3333H26.2498V28H28.5831C28.9053 28 29.1665 27.7391 29.1665 27.4167V8.75006C29.1665 8.42792 28.9053 8.16673 28.5831 8.16673H26.2498V1.75009C26.2498 1.49915 26.0892 1.27613 25.8508 1.19667L22.3508 0.0300039C22.173 -0.0292407 21.9774 0.000666461 21.8253 0.110326C21.6732 0.219985 21.5832 0.39601 21.5832 0.583428V8.16673H19.2498C18.9277 8.16673 18.6665 8.42792 18.6665 8.75006V27.4167C18.6665 27.7391 18.9277 28 19.2498 28H21.5832V30.3333H19.2498ZM27.9998 33.8333H19.8332V31.5H27.9998V33.8333ZM22.7498 1.39263L25.0831 2.17078V8.16673H22.7498V1.39263ZM19.8332 9.33339H27.9998V26.8333H19.8332V9.33339ZM22.7498 28H25.0831V30.3333H22.7498V28Z" fill="#4CAF50"/>
<path d="M21 23.3334H24.5V24.5H21V23.3334Z" fill="#4CAF50"/>
<path d="M21 23.3334H24.5V24.5H21V23.3334Z" fill="#4CAF50"/>
<path d="M21 19.8334H24.5V21H21V19.8334Z" fill="#4CAF50"/>
<path d="M21 19.8334H24.5V21H21V19.8334Z" fill="#4CAF50"/>
<path d="M21 16.3334H24.5V17.5H21V16.3334Z" fill="#4CAF50"/>
<path d="M21 16.3334H24.5V17.5H21V16.3334Z" fill="#4CAF50"/>
<path d="M21 12.8334H24.5V14.0001H21V12.8334Z" fill="#4CAF50"/>
<path d="M21 12.8334H24.5V14.0001H21V12.8334Z" fill="#4CAF50"/>
<path d="M8.16667 31.5C10.7441 31.5 12.8333 29.4108 12.8333 26.8334C12.8333 24.2562 10.7441 22.1667 8.16667 22.1667C5.58952 22.1667 3.5 24.2562 3.5 26.8334C3.50285 29.4096 5.59066 31.4972 8.16667 31.5ZM8.16667 23.3334C9.87394 23.3356 11.3314 24.5672 11.6182 26.25H4.71509C5.0022 24.5672 6.45939 23.3356 8.16667 23.3334ZM11.6182 27.4167C11.3351 29.1023 9.87594 30.3368 8.16667 30.3368C6.45768 30.3368 4.99849 29.1023 4.71509 27.4167H11.6182Z" fill="#4CAF50"/>
<path d="M8.16667 31.5C10.7441 31.5 12.8333 29.4108 12.8333 26.8334C12.8333 24.2562 10.7441 22.1667 8.16667 22.1667C5.58952 22.1667 3.5 24.2562 3.5 26.8334C3.50285 29.4096 5.59066 31.4972 8.16667 31.5ZM8.16667 23.3334C9.87394 23.3356 11.3314 24.5672 11.6182 26.25H4.71509C5.0022 24.5672 6.45939 23.3356 8.16667 23.3334ZM11.6182 27.4167C11.3351 29.1023 9.87594 30.3368 8.16667 30.3368C6.45768 30.3368 4.99849 29.1023 4.71509 27.4167H11.6182Z" fill="#4CAF50"/>
<path d="M15.8703 13.9605C14.6148 12.8067 12.8295 12.4296 11.2145 12.977C9.59922 13.5247 8.41147 14.9096 8.11639 16.5892C7.8213 18.2689 8.46616 19.9759 9.79775 21.0411C11.0536 22.195 12.8389 22.5721 14.4539 22.0246C16.0689 21.4769 17.2569 20.0921 17.552 18.4124C17.8468 16.7328 17.2022 15.0258 15.8703 13.9605ZM9.33347 17.5001C9.33433 16.2395 10.0131 15.0765 11.1105 14.4558C12.208 13.8352 13.5547 13.8529 14.6356 14.502L10.1467 19.7386C9.62144 19.1108 9.33376 18.3187 9.33347 17.5001ZM12.8335 21.0001C12.1986 20.9995 11.5757 20.8261 11.0316 20.4985L15.5234 15.2619C16.3944 16.3047 16.5827 17.7576 16.0059 18.9878C15.4294 20.218 14.1921 21.0027 12.8335 21.0001Z" fill="#4CAF50"/>
<path d="M15.8703 13.9605C14.6148 12.8067 12.8295 12.4296 11.2145 12.977C9.59922 13.5247 8.41147 14.9096 8.11639 16.5892C7.8213 18.2689 8.46616 19.9759 9.79775 21.0411C11.0536 22.195 12.8389 22.5721 14.4539 22.0246C16.0689 21.4769 17.2569 20.0921 17.552 18.4124C17.8468 16.7328 17.2022 15.0258 15.8703 13.9605ZM9.33347 17.5001C9.33433 16.2395 10.0131 15.0765 11.1105 14.4558C12.208 13.8352 13.5547 13.8529 14.6356 14.502L10.1467 19.7386C9.62144 19.1108 9.33376 18.3187 9.33347 17.5001ZM12.8335 21.0001C12.1986 20.9995 11.5757 20.8261 11.0316 20.4985L15.5234 15.2619C16.3944 16.3047 16.5827 17.7576 16.0059 18.9878C15.4294 20.218 14.1921 21.0027 12.8335 21.0001Z" fill="#4CAF50"/>
<path d="M4.66675 5.83344H5.83342V7.0001H4.66675V5.83344Z" fill="#4CAF50"/>
<path d="M4.66675 5.83344H5.83342V7.0001H4.66675V5.83344Z" fill="#4CAF50"/>
<path d="M8.16675 8.16675H9.33342V9.33341H8.16675V8.16675Z" fill="#4CAF50"/>
<path d="M8.16675 8.16675H9.33342V9.33341H8.16675V8.16675Z" fill="#4CAF50"/>
<path d="M2.3335 15.1667H3.50016V16.3334H2.3335V15.1667Z" fill="#4CAF50"/>
<path d="M2.3335 15.1667H3.50016V16.3334H2.3335V15.1667Z" fill="#4CAF50"/>
<path d="M15.1667 28H16.3334V29.1667H15.1667V28Z" fill="#4CAF50"/>
<path d="M15.1667 28H16.3334V29.1667H15.1667V28Z" fill="#4CAF50"/>
<path d="M30.3333 12.8334H31.4999V14.0001H30.3333V12.8334Z" fill="#4CAF50"/>
<path d="M30.3333 12.8334H31.4999V14.0001H30.3333V12.8334Z" fill="#4CAF50"/>
<path d="M31.5 16.3334H32.6667V17.5H31.5V16.3334Z" fill="#4CAF50"/>
<path d="M31.5 16.3334H32.6667V17.5H31.5V16.3334Z" fill="#4CAF50"/>
<path d="M14 30.3334H15.1667V31.5H14V30.3334Z" fill="#4CAF50"/>
<path d="M14 30.3334H15.1667V31.5H14V30.3334Z" fill="#4CAF50"/>
<path d="M15.1667 31.4999H16.3334V32.6666H15.1667V31.4999Z" fill="#4CAF50"/>
<path d="M15.1667 31.4999H16.3334V32.6666H15.1667V31.4999Z" fill="#4CAF50"/>
<path d="M16.3335 4.66681H17.5002V5.83348H16.3335V4.66681Z" fill="#4CAF50"/>
<path d="M16.3335 4.66681H17.5002V5.83348H16.3335V4.66681Z" fill="#4CAF50"/>
<path d="M25.6667 14.0001H26.8333V11.0835C26.8333 10.7613 26.5721 10.5001 26.25 10.5001H21V11.6668H25.6667V14.0001Z" fill="#4CAF50"/>
<path d="M25.6667 14.0001H26.8333V11.0835C26.8333 10.7613 26.5721 10.5001 26.25 10.5001H21V11.6668H25.6667V14.0001Z" fill="#4CAF50"/>
<path d="M25.6667 15.1667H26.8334V16.3334H25.6667V15.1667Z" fill="#4CAF50"/>
<path d="M25.6667 15.1667H26.8334V16.3334H25.6667V15.1667Z" fill="#4CAF50"/>
</g>
<defs>
<clipPath id="clip0_10_6450">
<rect width="35" height="35" fill="white"/>
</clipPath>
</defs>
</svg>
