<svg width="18" height="18" viewBox="0 0 18 18" fill="none" xmlns="http://www.w3.org/2000/svg">
<g clip-path="url(#clip0_22_1859)">
<path d="M17.7473 8.94543L16.7087 4.27113C16.5418 3.52258 15.8899 3.00002 15.1238 3.00002C14.2288 3.00002 13.5 3.72842 13.5 4.62343V4.87501C13.5 5.08229 13.6677 5.25002 13.875 5.25002C14.0823 5.25002 14.25 5.08229 14.25 4.87501V4.62343C14.25 4.14186 14.6419 3.75001 15.1238 3.75001C15.5361 3.75001 15.887 4.03161 15.9763 4.43408L17.0149 9.10803C17.1438 9.68885 17.22 10.2814 17.2427 10.875H17.2121C17.0208 8.98534 15.4393 7.49998 13.5 7.49998C11.8045 7.49998 10.3847 8.63852 9.92257 10.1859C9.69311 9.94394 9.39069 9.74998 9 9.74998C8.60931 9.74998 8.30689 9.94394 8.07743 10.1859C7.6153 8.63852 6.19552 7.49998 4.5 7.49998C2.56078 7.49998 0.979207 8.98534 0.787887 10.875H0.757301C0.780012 10.2814 0.856195 9.68881 0.985078 9.10803L2.02366 4.43443C2.11303 4.03161 2.46386 3.74997 2.8762 3.74997C3.35812 3.74997 3.74998 4.14182 3.74998 4.62339V4.87497C3.74998 5.08225 3.91771 5.24998 4.12499 5.24998C4.33227 5.24998 4.5 5.08225 4.5 4.87497V4.62339C4.5 3.72839 3.77125 2.99998 2.8762 2.99998C2.11008 2.99998 1.45825 3.52258 1.29125 4.27148L0.252703 8.94543C0.0849727 9.70203 0 10.4773 0 11.25C0 11.4573 0.16773 11.625 0.375012 11.625H0.787922C0.979207 13.5147 2.56078 15 4.50004 15C6.53572 15 8.18972 13.367 8.24059 11.3433C8.31593 11.1337 8.6156 10.5 9.00004 10.5C9.37459 10.5 9.67047 11.0984 9.75938 11.3422C9.80965 13.3664 11.464 15 13.5 15C15.4393 15 17.0208 13.5147 17.2121 11.625H17.6251C17.8323 11.625 18.0001 11.4573 18.0001 11.25C18 10.4773 17.915 9.70203 17.7473 8.94543ZM4.5 14.25C2.84544 14.25 1.50001 12.9042 1.50001 11.25C1.50001 9.59582 2.84548 8.25001 4.5 8.25001C6.15452 8.25001 7.49999 9.59582 7.49999 11.25C7.49999 12.9042 6.15456 14.25 4.5 14.25ZM13.5 14.25C11.8454 14.25 10.5 12.9042 10.5 11.25C10.5 9.59582 11.8455 8.25001 13.5 8.25001C15.1545 8.25001 16.5 9.59582 16.5 11.25C16.5 12.9042 15.1546 14.25 13.5 14.25Z" fill="white"/>
<path d="M4.5 9C3.25927 9 2.25 10.0093 2.25 11.25C2.25 11.4573 2.41773 11.625 2.62501 11.625C2.83229 11.625 3.00002 11.4573 3.00002 11.25C3.00002 10.4227 3.67313 9.74999 4.50004 9.74999C4.70732 9.74999 4.87505 9.58226 4.87505 9.37498C4.87501 9.16773 4.70728 9 4.5 9Z" fill="white"/>
<path d="M13.5 9C12.2593 9 11.25 10.0093 11.25 11.25C11.25 11.4573 11.4177 11.625 11.625 11.625C11.8323 11.625 12 11.4573 12 11.25C12 10.4227 12.6731 9.74999 13.5 9.74999C13.7073 9.74999 13.875 9.58226 13.875 9.37498C13.875 9.16773 13.7073 9 13.5 9Z" fill="white"/>
</g>
<defs>
<clipPath id="clip0_22_1859">
<rect width="18" height="18" fill="white"/>
</clipPath>
</defs>
</svg>
