<svg width="143" height="655" viewBox="0 0 143 655" fill="none" xmlns="http://www.w3.org/2000/svg">
<path d="M118.382 28.5774C84.5584 69.4883 66.1973 127.897 65.2564 197.335C64.6969 238.797 69.8593 280.661 74.8692 321.17C77.0817 339.219 79.396 357.895 81.1507 376.32C86.0335 427.208 88.78 493.362 65.6887 553.6C52.6426 587.818 31.128 621.008 0.000488281 655H1.11946C32.0435 621.108 53.431 588.018 66.477 553.901C89.5429 493.487 86.8217 427.208 81.9898 376.245C80.2097 357.82 77.9209 339.144 75.683 321.095C70.5968 280.61 65.5106 238.772 66.0955 197.36C67.011 128.172 85.3213 70.0398 119.017 29.2041C127.789 18.6236 137.86 9.15892 149 1.02779V0C137.621 8.22552 127.335 17.8264 118.382 28.5774Z" fill="url(#paint0_linear_19_912)"/>
<defs>
<linearGradient id="paint0_linear_19_912" x1="94026.5" y1="183976" x2="102756" y2="183976" gradientUnits="userSpaceOnUse">
<stop stop-color="#4CAF50"/>
<stop offset="1" stop-color="#FFA35A"/>
</linearGradient>
</defs>
</svg>
