<svg width="560" height="342" viewBox="0 0 560 342" fill="none" xmlns="http://www.w3.org/2000/svg">
<path d="M541.081 12.1408C514.862 29.9421 493.512 54.0061 478.971 82.1462C468.362 102.985 461.67 125.835 455.179 147.926C452.225 157.965 449.181 168.339 445.824 178.401C432.148 219.138 414.87 245.768 391.413 262.201C353.566 288.697 304.796 285.209 257.615 281.832C246.312 281.028 234.651 280.2 223.438 279.798C144.373 277.462 66.4605 299.151 0.000488281 342H1.36575C67.4759 299.603 144.866 278.147 223.393 280.446C234.584 280.826 246.245 281.676 257.526 282.481C304.841 285.857 353.767 289.345 391.816 262.693C415.429 246.17 432.797 219.429 446.517 178.535C449.897 168.473 452.941 158.077 455.895 148.038C462.364 125.992 469.056 103.163 479.62 82.3921C494.098 54.332 515.372 30.3356 541.506 12.588C547.773 8.30417 554.282 4.38487 561 0.849645V0C554.125 3.64888 547.474 7.70296 541.081 12.1408Z" fill="#00ACB1"/>
</svg>
