<svg width="140" height="22" viewBox="0 0 140 22" fill="none" xmlns="http://www.w3.org/2000/svg">
<path d="M0.722 21V1.4H4.894L12.538 14.014V1.4H16.402V21H12.23L4.586 8.386V21H0.722ZM31.1344 7H34.9984V21H31.1204L30.9524 19.544C30.5884 20.0853 30.1217 20.524 29.5524 20.86C28.983 21.196 28.3157 21.364 27.5504 21.364C26.505 21.364 25.525 21.168 24.6104 20.776C23.705 20.384 22.907 19.8427 22.2164 19.152C21.535 18.4613 20.9984 17.6633 20.6064 16.758C20.2237 15.8433 20.0324 14.8633 20.0324 13.818C20.0324 12.8193 20.2144 11.886 20.5784 11.018C20.9424 10.15 21.4557 9.38467 22.1184 8.722C22.781 8.05933 23.5417 7.54133 24.4004 7.168C25.2684 6.79467 26.197 6.608 27.1864 6.608C28.045 6.608 28.8197 6.79 29.5104 7.154C30.201 7.518 30.803 7.98 31.3164 8.54L31.1344 7ZM27.6624 17.654C28.325 17.654 28.9084 17.4813 29.4124 17.136C29.9164 16.7813 30.299 16.3147 30.5604 15.736C30.8217 15.1573 30.9104 14.518 30.8264 13.818C30.7517 13.174 30.5417 12.5907 30.1964 12.068C29.851 11.536 29.4124 11.116 28.8804 10.808C28.3577 10.5 27.793 10.346 27.1864 10.346C26.5237 10.346 25.9357 10.5187 25.4224 10.864C24.909 11.2093 24.517 11.6713 24.2464 12.25C23.9757 12.8287 23.873 13.4727 23.9384 14.182C24.0224 14.8167 24.2417 15.4 24.5964 15.932C24.9604 16.4547 25.4084 16.8747 25.9404 17.192C26.4817 17.5 27.0557 17.654 27.6624 17.654ZM48.6304 10.948C48.3784 10.7613 48.0984 10.6167 47.7904 10.514C47.4824 10.402 47.1418 10.346 46.7684 10.346C46.1338 10.346 45.5924 10.5093 45.1444 10.836C44.7058 11.1533 44.3698 11.5827 44.1364 12.124C43.9124 12.6653 43.8004 13.2673 43.8004 13.93V21H39.9084V7H43.7724V8.442C44.2204 7.90067 44.7478 7.46667 45.3544 7.14C45.9704 6.804 46.6704 6.636 47.4544 6.636C47.7718 6.636 48.0798 6.64533 48.3784 6.664C48.6771 6.67333 48.9664 6.72 49.2464 6.804L48.6304 10.948ZM66.3223 21H61.8703L58.9023 15.89L57.1943 17.92V21H53.3303V-1.66893e-06H57.1943V11.914L61.3103 7H66.3503L61.5483 12.754L66.3223 21ZM75.207 21.364C73.919 21.364 72.743 21.0327 71.679 20.37C70.6244 19.7073 69.7797 18.8207 69.145 17.71C68.5197 16.59 68.207 15.3533 68.207 14C68.207 12.9733 68.389 12.0167 68.753 11.13C69.117 10.234 69.6164 9.45 70.251 8.778C70.895 8.09667 71.6417 7.56467 72.491 7.182C73.3404 6.79933 74.2457 6.608 75.207 6.608C76.495 6.608 77.6664 6.93933 78.721 7.602C79.785 8.26467 80.6297 9.156 81.255 10.276C81.8897 11.396 82.207 12.6373 82.207 14C82.207 15.0173 82.025 15.9693 81.661 16.856C81.297 17.7427 80.793 18.5267 80.149 19.208C79.5144 19.88 78.7724 20.4073 77.923 20.79C77.083 21.1727 76.1777 21.364 75.207 21.364ZM75.207 17.5C75.8044 17.5 76.341 17.3413 76.817 17.024C77.293 16.6973 77.6664 16.268 77.937 15.736C78.2077 15.204 78.343 14.6253 78.343 14C78.343 13.356 78.1984 12.768 77.909 12.236C77.629 11.6947 77.251 11.2653 76.775 10.948C76.299 10.6307 75.7764 10.472 75.207 10.472C74.619 10.472 74.087 10.6353 73.611 10.962C73.135 11.2887 72.757 11.718 72.477 12.25C72.2064 12.782 72.071 13.3653 72.071 14C72.071 14.6627 72.211 15.26 72.491 15.792C72.7804 16.3147 73.163 16.73 73.639 17.038C74.115 17.346 74.6377 17.5 75.207 17.5Z" fill="#434343"/>
<path d="M87.641 21.364C87.0997 21.364 86.6377 21.1773 86.255 20.804C85.8817 20.4213 85.695 19.9547 85.695 19.404C85.695 18.872 85.8817 18.4147 86.255 18.032C86.6377 17.6493 87.0997 17.458 87.641 17.458C88.1823 17.458 88.6443 17.6493 89.027 18.032C89.4097 18.4147 89.601 18.872 89.601 19.404C89.601 19.9547 89.4097 20.4213 89.027 20.804C88.6443 21.1773 88.1823 21.364 87.641 21.364Z" fill="black"/>
<path d="M94.5362 21V1.4H98.7082L106.352 14.014V1.4H110.216V21H106.044L98.4002 8.386V21H94.5362ZM120.679 21.364C119.391 21.364 118.215 21.0327 117.151 20.37C116.096 19.7073 115.251 18.816 114.617 17.696C113.991 16.576 113.679 15.3393 113.679 13.986C113.679 12.9687 113.861 12.0167 114.225 11.13C114.589 10.234 115.088 9.45 115.723 8.778C116.367 8.09667 117.113 7.56467 117.963 7.182C118.812 6.79933 119.717 6.608 120.679 6.608C121.789 6.608 122.802 6.846 123.717 7.322C124.641 7.798 125.42 8.44667 126.055 9.268C126.699 10.0893 127.156 11.018 127.427 12.054C127.707 13.09 127.753 14.168 127.567 15.288H117.851C117.972 15.6987 118.159 16.072 118.411 16.408C118.672 16.7347 118.989 16.996 119.363 17.192C119.745 17.388 120.184 17.4907 120.679 17.5C121.164 17.5093 121.612 17.3973 122.023 17.164C122.433 16.9307 122.783 16.618 123.073 16.226L127.021 17.136C126.451 18.3773 125.602 19.3947 124.473 20.188C123.343 20.972 122.079 21.364 120.679 21.364ZM117.711 12.432H123.661C123.539 11.9653 123.334 11.5453 123.045 11.172C122.755 10.7987 122.405 10.5047 121.995 10.29C121.593 10.0753 121.155 9.968 120.679 9.968C120.212 9.968 119.773 10.0753 119.363 10.29C118.961 10.5047 118.616 10.7987 118.327 11.172C118.047 11.536 117.841 11.956 117.711 12.432ZM139.261 10.864H136.741V21H132.877V10.864H130.945V7H132.877V2.604H136.741V7H139.261V10.864Z" fill="#4CAF50"/>
</svg>
