<svg width="60" height="60" viewBox="0 0 60 60" fill="none" xmlns="http://www.w3.org/2000/svg">
<g clip-path="url(#clip0_10_6503)">
<path d="M49.9194 48.2499C49.4339 48.2499 49.0405 48.6433 49.0405 49.1288V59.1211C49.0405 59.6066 49.4339 60 49.9194 60C50.4049 60 50.7983 59.6066 50.7983 59.1211V49.1288C50.7983 48.6434 50.4049 48.2499 49.9194 48.2499Z" fill="white"/>
<path d="M29.0388 48.2499C28.5533 48.2499 28.1599 48.6433 28.1599 49.1288V59.1211C28.1599 59.6066 28.5533 60 29.0388 60C29.5243 60 29.9177 59.6066 29.9177 59.1211V49.1288C29.9177 48.6434 29.5243 48.2499 29.0388 48.2499Z" fill="white"/>
<path d="M43.476 35.1824V34.0888C46.9875 32.7185 49.6545 29.601 50.4259 25.805C50.5451 25.8146 50.6646 25.8211 50.7845 25.8211C53.2382 25.8211 55.2342 23.825 55.2342 21.3715C55.2342 19.9425 54.5564 18.6696 53.5062 17.8549V12.932C53.5184 12.9033 53.5314 12.8752 53.5432 12.8462C53.9782 11.7854 54.1425 10.6209 54.0187 9.47848C53.9795 9.11648 53.9277 8.75262 53.8648 8.39672C53.0057 3.53133 48.7659 0 43.7835 0H43.6071C43.1216 0 42.7282 0.393398 42.7282 0.878906C42.7282 1.36441 43.1216 1.75781 43.6071 1.75781H43.7835C47.9115 1.75781 51.4232 4.67836 52.1337 8.70234C52.1898 9.01992 52.236 9.34465 52.271 9.66785C52.3635 10.5202 52.2409 11.3888 51.9168 12.1793C51.1229 14.115 49.2579 15.3657 47.1655 15.3657H31.7944C29.7047 15.3657 27.8406 14.1171 27.0455 12.1847C27.0447 12.1826 27.0435 12.1799 27.0424 12.1772C26.7177 11.3859 26.595 10.5172 26.6876 9.6648C26.7226 9.34277 26.7687 9.01898 26.8246 8.70223C27.5349 4.67836 31.0466 1.75781 35.1747 1.75781H39.6434C40.1289 1.75781 40.5223 1.36441 40.5223 0.878906C40.5223 0.393398 40.1289 0 39.6434 0H35.1747C30.1922 0 25.9524 3.53133 25.0934 8.3966C25.0308 8.75145 24.979 9.11426 24.9399 9.47473C24.8153 10.6199 24.981 11.7872 25.4185 12.8504C25.4193 12.8525 25.4206 12.8554 25.4216 12.8582C25.4313 12.8818 25.4421 12.9049 25.4522 12.9285V17.8546C24.4015 18.6693 23.7233 19.9423 23.7233 21.3714C23.7233 23.8249 25.72 25.821 28.1741 25.821C28.2856 25.821 28.397 25.8154 28.5083 25.807C28.9293 27.9891 29.9925 29.9937 31.6052 31.5949C32.7288 32.7105 34.0464 33.5582 35.4815 34.107V35.1825C32.1223 35.5175 29.0862 36.921 26.7058 39.0402L19.7298 32.0641C19.5649 31.8994 19.3415 31.8068 19.1083 31.8068H3.38696C2.90146 31.8068 2.50806 32.2002 2.50806 32.6857C2.50806 33.1712 2.90146 33.5646 3.38696 33.5646H18.7445L25.4606 40.2809C22.9746 43.05 21.4664 46.7054 21.4664 50.6816V52.7012C21.4664 53.1867 21.8598 53.5801 22.3453 53.5801C22.8308 53.5801 23.2242 53.1867 23.2242 52.7012V50.6816C23.2242 47.1877 24.537 43.9731 26.7048 41.525L27.0469 41.8671C27.2186 42.0387 27.4434 42.1245 27.6684 42.1245C27.8933 42.1245 28.1183 42.0387 28.29 41.8671C28.6333 41.5238 28.6333 40.9673 28.29 40.6241L27.951 40.2851C30.009 38.4803 32.608 37.2729 35.4818 36.9493V38.0126C35.4818 40.2163 37.2752 42.0091 39.4795 42.0091C41.6833 42.0091 43.4761 40.2163 43.4761 38.0126V36.9491C50.4026 37.7284 55.7344 43.6345 55.7344 50.6816V59.1211C55.7344 59.6066 56.1278 60 56.6133 60C57.0988 60 57.4922 59.6066 57.4922 59.1211V50.6815C57.492 42.6716 51.3798 35.9702 43.476 35.1824ZM50.7844 24.0633C50.7365 24.0633 50.6885 24.062 50.6408 24.0594C50.6487 23.8862 50.6533 23.7122 50.6533 23.5371V18.6859C50.697 18.6838 50.7404 18.6798 50.7844 18.6798C52.2687 18.6798 53.4763 19.8873 53.4763 21.3716C53.4763 22.8559 52.2687 24.0633 50.7844 24.0633ZM51.7481 15.3845V17.0283C51.4376 16.9594 51.1153 16.922 50.7843 16.922C50.7404 16.922 50.6968 16.9237 50.6531 16.925V16.6771C50.6531 16.5139 50.6483 16.3505 50.6412 16.1876C51.0358 15.9577 51.4065 15.6887 51.7481 15.3845ZM27.2101 15.3829C27.5515 15.6871 27.9222 15.9559 28.3164 16.1859C28.3092 16.3494 28.3044 16.5134 28.3044 16.677V16.9249C28.2611 16.9236 28.2177 16.9219 28.1744 16.9219C27.8432 16.9219 27.5209 16.9594 27.2101 17.0283V15.3829ZM28.1742 24.0633C26.6892 24.0633 25.4813 22.8558 25.4813 21.3715C25.4813 19.8872 26.6894 18.6797 28.1742 18.6797C28.2177 18.6797 28.261 18.6836 28.3043 18.6858V23.666C28.3043 23.7977 28.3074 23.9289 28.3119 24.0598C28.2661 24.0621 28.2202 24.0633 28.1742 24.0633ZM30.0622 23.666V16.9041C30.6189 17.0475 31.1998 17.1236 31.7944 17.1236H47.1654C47.7594 17.1236 48.3394 17.0476 48.8954 16.9046V23.5371C48.8954 28.7619 44.7032 33.0437 39.5504 33.082C39.5271 33.0823 39.504 33.0823 39.4807 33.0823C36.9764 33.0823 34.6218 32.1128 32.8439 30.3476C31.05 28.5667 30.0622 26.1938 30.0622 23.666ZM39.4794 40.2512C38.2443 40.2512 37.2395 39.247 37.2395 38.0125V34.6164C37.9692 34.764 38.7189 34.8401 39.4805 34.84C39.5079 34.84 39.5358 34.84 39.5632 34.8397C40.3004 34.8342 41.0208 34.755 41.7182 34.6103V38.0123C41.7182 39.2469 40.7139 40.2512 39.4794 40.2512Z" fill="white"/>
<path d="M22.3452 55.786C21.8597 55.786 21.4663 56.1794 21.4663 56.6649V59.1211C21.4663 59.6066 21.8597 60 22.3452 60C22.8307 60 23.2241 59.6066 23.2241 59.1211V56.6649C23.2241 56.1794 22.8307 55.786 22.3452 55.786Z" fill="white"/>
<path d="M44.3108 21.9766C44.3142 21.9767 44.3177 21.9767 44.3211 21.9767C44.8018 21.9767 45.1942 21.5897 45.1997 21.1079C45.2053 20.6225 44.8164 20.2245 44.331 20.219L44.321 20.2189C44.3176 20.2187 44.3141 20.2188 44.3107 20.2188C43.8301 20.2188 43.4426 20.6057 43.4371 21.0876C43.4314 21.573 43.8253 21.9711 44.3108 21.9766Z" fill="white"/>
<path d="M34.6473 20.2189H34.6375C34.152 20.2189 33.7634 20.6123 33.7634 21.0978C33.7634 21.5833 34.1617 21.9767 34.6473 21.9767C35.1328 21.9767 35.5262 21.5833 35.5262 21.0978C35.5262 20.6123 35.1326 20.2189 34.6473 20.2189Z" fill="white"/>
<path d="M16.7861 36.0867H5.66968C5.18417 36.0867 4.79077 36.4801 4.79077 36.9656C4.79077 37.4511 5.18417 37.8445 5.66968 37.8445H16.786C17.2715 37.8445 17.6649 37.4511 17.6649 36.9656C17.6649 36.4801 17.2715 36.0867 16.7861 36.0867Z" fill="white"/>
<path d="M16.7862 39.1727H10.4534C9.96786 39.1727 9.57446 39.5661 9.57446 40.0516C9.57446 40.5371 9.96786 40.9305 10.4534 40.9305H16.7862C17.2717 40.9305 17.6651 40.5371 17.6651 40.0516C17.6651 39.5661 17.2716 39.1727 16.7862 39.1727Z" fill="white"/>
<path d="M16.7862 42.2585H10.4534C9.96786 42.2585 9.57446 42.6519 9.57446 43.1375C9.57446 43.623 9.96786 44.0164 10.4534 44.0164H16.7862C17.2717 44.0164 17.6651 43.623 17.6651 43.1375C17.6651 42.6519 17.2716 42.2585 16.7862 42.2585Z" fill="white"/>
<path d="M15.5779 46.7322H12.7686C11.6378 46.7322 10.7178 47.6522 10.7178 48.783V51.5924C10.7178 52.7231 11.6378 53.6432 12.7686 53.6432H15.5779C16.7086 53.6432 17.6287 52.7231 17.6287 51.5924V48.783C17.6287 47.6522 16.7087 46.7322 15.5779 46.7322ZM15.8709 51.5924C15.8709 51.754 15.7395 51.8854 15.5779 51.8854H12.7686C12.607 51.8854 12.4756 51.754 12.4756 51.5924V48.783C12.4756 48.6214 12.607 48.49 12.7686 48.49H15.5779C15.7395 48.49 15.8709 48.6214 15.8709 48.783V51.5924Z" fill="white"/>
<path d="M5.43666 24.8744C6.87959 26.8697 8.95592 28.3091 11.6086 29.1525C11.7429 29.1952 11.8809 29.2166 12.0191 29.2166C12.1572 29.2166 12.2953 29.1952 12.4297 29.1525C15.0822 28.3091 17.1587 26.8697 18.6014 24.8744C19.3066 23.8994 19.7047 22.9907 19.9144 22.4004C20.0437 22.0366 20.1095 21.6543 20.1095 21.2644V19.2344C20.1095 18.7489 19.7161 18.3555 19.2306 18.3555C18.7451 18.3555 18.3517 18.7489 18.3517 19.2344V21.2644C18.3517 21.453 18.3201 21.6371 18.258 21.8117C18.0867 22.294 17.7601 23.0382 17.177 23.8445C15.9812 25.4982 14.2463 26.7068 12.019 27.4381C9.7917 26.7067 8.05662 25.498 6.86096 23.8446C6.65107 23.5543 6.45807 23.2487 6.28744 22.9368C5.89416 22.2173 5.68615 21.3939 5.68615 20.5558V13.5676L12.0188 12.0255L18.3514 13.5676V15.2706C18.3514 15.7561 18.7448 16.1495 19.2303 16.1495C19.7158 16.1495 20.1092 15.7561 20.1092 15.2706V13.2538C20.1092 12.6252 19.6827 12.0824 19.0721 11.9338L12.3394 10.2941C12.1299 10.2434 11.9081 10.2434 11.6973 10.2944L4.96545 11.9338C4.35478 12.0824 3.92822 12.6251 3.92822 13.2538V20.5557C3.92822 21.6876 4.21064 22.8025 4.74502 23.7801C4.95127 24.1564 5.18377 24.5244 5.43666 24.8744Z" fill="white"/>
<path d="M12.0188 22.2503C12.5043 22.2503 12.8977 21.8569 12.8977 21.3714V20.1326H14.1365C14.622 20.1326 15.0154 19.7392 15.0154 19.2537C15.0154 18.7682 14.622 18.3748 14.1365 18.3748H12.8977V17.136C12.8977 16.6505 12.5043 16.2571 12.0188 16.2571C11.5333 16.2571 11.1399 16.6505 11.1399 17.136V18.3748H9.90112C9.41562 18.3748 9.02222 18.7682 9.02222 19.2537C9.02222 19.7392 9.41562 20.1326 9.90112 20.1326H11.1399V21.3714C11.1399 21.8569 11.5333 22.2503 12.0188 22.2503Z" fill="white"/>
<path d="M43.3586 26.1653C43.3761 25.6802 42.9971 25.2728 42.512 25.2552C42.0255 25.2391 41.6195 25.6168 41.6019 26.1019C41.5604 27.2499 40.6277 28.1492 39.4786 28.1492C38.3292 28.1492 37.3965 27.25 37.3552 26.102C37.3379 25.6169 36.9301 25.2373 36.4453 25.2552C35.9601 25.2727 35.581 25.6802 35.5985 26.1652C35.6741 28.2633 37.3783 29.907 39.4784 29.907C41.5786 29.907 43.2829 28.2636 43.3586 26.1653Z" fill="white"/>
</g>
<defs>
<clipPath id="clip0_10_6503">
<rect width="60" height="60" fill="white"/>
</clipPath>
</defs>
</svg>
