<svg width="60" height="60" viewBox="0 0 60 60" fill="none" xmlns="http://www.w3.org/2000/svg">
<g clip-path="url(#clip0_10_6599)">
<path d="M6.38929 5.31458C5.74229 5.31458 5.21753 5.83922 5.21753 6.48633C5.21753 7.13344 5.74218 7.65809 6.38929 7.65809H6.40101C7.048 7.65809 7.5669 7.13344 7.5669 6.48633C7.5669 5.83922 7.0364 5.31458 6.38929 5.31458Z" fill="white"/>
<path d="M12.0079 5.31458C11.3609 5.31458 10.8362 5.83922 10.8362 6.48633C10.8362 7.13344 11.3608 7.65809 12.0079 7.65809H12.0195C12.6665 7.65809 13.1856 7.13344 13.1856 6.48633C13.1856 5.83922 12.6551 5.31458 12.0079 5.31458Z" fill="white"/>
<path d="M17.6263 5.31458C16.9794 5.31458 16.4546 5.83922 16.4546 6.48633C16.4546 7.13344 16.9792 7.65809 17.6263 7.65809H17.6379C18.2849 7.65809 18.8038 7.13344 18.8038 6.48633C18.8038 5.83922 18.2735 5.31458 17.6263 5.31458Z" fill="white"/>
<path d="M46.3667 5.31458H32.1471C31.5001 5.31458 30.9753 5.83922 30.9753 6.48633C30.9753 7.13344 31.5 7.65809 32.1471 7.65809H46.3667C47.0137 7.65809 47.5385 7.13344 47.5385 6.48633C47.5385 5.83922 47.0137 5.31458 46.3667 5.31458Z" fill="white"/>
<path d="M27.4115 46.5132C27.1935 46.2952 26.8912 46.1698 26.5831 46.1698C26.2751 46.1698 25.9727 46.2952 25.7549 46.5132C25.5369 46.7311 25.4114 47.0335 25.4114 47.3416C25.4114 47.6496 25.5368 47.952 25.7549 48.1698C25.9727 48.3878 26.2749 48.5133 26.5831 48.5133C26.8913 48.5133 27.1936 48.3879 27.4115 48.1698C27.6295 47.952 27.7549 47.6498 27.7549 47.3416C27.7549 47.0334 27.6295 46.7311 27.4115 46.5132Z" fill="white"/>
<path d="M53.6726 15.0319V5.86203C53.6726 2.63152 51.0444 0.00335693 47.8139 0.00335693H5.85867C2.62816 0.00335693 0 2.63164 0 5.86215V42.8855C0 45.9888 2.52457 48.5134 5.6277 48.5134H10.0253V48.7036C10.0253 49.1045 9.73992 49.4522 9.34688 49.5304L4.93102 50.4103C2.47699 50.8994 0.645938 52.8992 0.374766 55.3868L0.0137109 58.6978C-0.0223828 59.0287 0.0841406 59.3593 0.306328 59.6072C0.528516 59.855 0.845742 59.9966 1.17855 59.9966H26.5828C26.9157 59.9966 27.233 59.8549 27.4552 59.607C27.6773 59.3592 27.7838 59.0285 27.7475 58.6975L27.3855 55.3855C27.1138 52.8985 25.2829 50.8993 22.8295 50.4104L18.4129 49.5304C18.0197 49.4522 17.7345 49.1043 17.7345 48.7036V47.6033C17.7345 47.5973 17.7336 47.5916 17.7335 47.5856L19.7195 46.4503C19.7414 46.4379 19.7627 46.4246 19.7837 46.4108C20.8486 45.7075 21.5479 44.4553 21.6544 43.0609C21.6567 43.0311 21.6578 43.0013 21.6578 42.9716V38.1662C22.358 37.7101 22.8691 36.8809 22.8691 35.4294L22.871 32.7964C22.871 32.7528 22.8687 32.7098 22.864 32.6674C22.744 30.3486 20.856 28.5474 18.5207 28.5474H8.56324C8.12613 28.5474 7.72043 28.3159 7.45699 28.1217C6.96352 27.7579 6.31816 27.7033 5.77219 27.9792C5.22832 28.254 4.89047 28.8035 4.89047 29.4134V33.226C4.89047 34.5211 5.34574 35.7113 6.10371 36.6471V42.9716C6.10371 43.0013 6.10488 43.0311 6.10711 43.0609C6.20215 44.3048 6.7773 45.4377 7.66641 46.1697H5.6277C3.8168 46.17 2.3434 44.6967 2.3434 42.8855V18.2907H15.429C16.076 18.2907 16.6008 17.7661 16.6008 17.1189C16.6008 16.4718 16.0761 15.9472 15.429 15.9472H2.34352V12.6663H51.3292V14.9996H32.308C28.453 14.9996 25.3166 18.1359 25.3166 21.9909V31.7984C25.3166 35.6534 28.453 38.7897 32.308 38.7897H33.7727V42.2157C33.7727 42.6897 34.0583 43.1169 34.496 43.2983C34.641 43.3583 34.7933 43.3875 34.9443 43.3875C35.2493 43.3875 35.5488 43.2684 35.773 43.0442L40.0275 38.7896H51.3293V42.8854C51.3293 44.6964 49.8559 46.1698 48.0449 46.1698H31.3511C30.7041 46.1698 30.1793 46.6945 30.1793 47.3416C30.1793 47.9887 30.7039 48.5134 31.3511 48.5134H48.0448C51.148 48.5134 53.6726 45.9887 53.6726 42.8855V38.7575C57.2173 38.4218 60 35.4296 60 31.7986V21.991C60 18.36 57.2173 15.3677 53.6726 15.0319ZM18.4924 51.9359L22.3718 52.7088C23.8175 52.9967 24.8961 54.1747 25.0563 55.6399L25.2763 57.6529H2.4852L2.70469 55.6407C2.86441 54.1749 3.94324 52.9967 5.3891 52.7087L9.26883 51.9357C10.5411 53.0691 12.163 53.6897 13.8807 53.6897C15.5985 53.6897 17.2202 53.069 18.4924 51.9359ZM11.6182 50.7519C12.0454 50.244 12.3135 49.6045 12.3594 48.9138C12.844 49.1513 13.3622 49.272 13.8807 49.272C14.3987 49.2721 14.9162 49.1517 15.4005 48.9146C15.4466 49.6053 15.7151 50.2447 16.1422 50.7526C15.4598 51.1392 14.6864 51.346 13.8807 51.346C13.0748 51.346 12.3011 51.1388 11.6182 50.7519ZM19.3145 42.9228C19.2554 43.5614 18.9538 44.1357 18.519 44.4375L14.5825 46.6878C14.5605 46.7002 14.5392 46.7135 14.5182 46.7273C14.113 46.9948 13.6484 46.9947 13.2434 46.7273C13.2229 46.7138 13.2019 46.7008 13.1805 46.6886L9.255 44.4377C8.8125 44.1315 8.50617 43.5569 8.44711 42.9227V38.333C9.03551 38.5514 9.6716 38.671 10.335 38.671H19.3145V42.9228ZM7.23398 33.2262V30.6459C7.67191 30.8077 8.11957 30.8911 8.56348 30.8911H18.5209C19.6141 30.8911 20.4949 31.7469 20.5259 32.8395C20.5262 32.8525 20.5269 32.8657 20.5277 32.8787L20.5259 35.4287C20.5259 35.4289 20.5259 35.4293 20.5259 35.4295C20.5259 36.0227 20.4047 36.1726 20.3909 36.1878C20.3435 36.2396 20.1383 36.3274 19.6698 36.3274H10.3351C8.625 36.3274 7.23398 34.9364 7.23398 33.2262ZM2.34352 10.3229V5.86215C2.34352 3.92386 3.92039 2.34699 5.85867 2.34699H47.8139C49.7522 2.34699 51.3291 3.92386 51.3291 5.86215V10.323H2.34352V10.3229ZM57.6565 31.7986C57.6565 34.3613 55.5714 36.4463 53.0086 36.4463H39.5419C39.2311 36.4463 38.9332 36.5698 38.7134 36.7896L36.1161 39.3869V37.6181C36.1161 36.9711 35.5915 36.4463 34.9444 36.4463H32.308C29.7452 36.4463 27.6601 34.3613 27.6601 31.7986V21.991C27.6601 19.4282 29.7452 17.3432 32.308 17.3432H53.0086C55.5714 17.3432 57.6565 19.4282 57.6565 21.991V31.7986Z" fill="white"/>
<path d="M33.2843 23.335C31.346 23.335 29.769 24.9118 29.769 26.8501C29.769 28.7884 31.3459 30.3653 33.2843 30.3653C35.2226 30.3653 36.7995 28.7884 36.7995 26.8501C36.7995 24.9118 35.2226 23.335 33.2843 23.335ZM33.2843 28.0219C32.6383 28.0219 32.1126 27.4963 32.1126 26.8501C32.1126 26.2041 32.6381 25.6784 33.2843 25.6784C33.9305 25.6784 34.4561 26.2039 34.4561 26.8501C34.4561 27.4963 33.9303 28.0219 33.2843 28.0219Z" fill="white"/>
<path d="M42.6582 23.335C40.7199 23.335 39.1431 24.9118 39.1431 26.8501C39.1431 28.7884 40.7199 30.3653 42.6582 30.3653C44.5965 30.3653 46.1734 28.7884 46.1734 26.8501C46.1734 24.9118 44.5965 23.335 42.6582 23.335ZM42.6582 28.0219C42.0122 28.0219 41.4865 27.4963 41.4865 26.8501C41.4865 26.2041 42.0121 25.6784 42.6582 25.6784C43.3044 25.6784 43.83 26.2039 43.83 26.8501C43.83 27.4963 43.3043 28.0219 42.6582 28.0219Z" fill="white"/>
<path d="M52.0322 23.335C50.094 23.335 48.5171 24.9118 48.5171 26.8501C48.5171 28.7884 50.094 30.3653 52.0322 30.3653C53.9705 30.3653 55.5475 28.7884 55.5475 26.8501C55.5475 24.9118 53.9705 23.335 52.0322 23.335ZM52.0322 28.0219C51.3862 28.0219 50.8605 27.4963 50.8605 26.8501C50.8605 26.2041 51.3861 25.6784 52.0322 25.6784C52.6783 25.6784 53.204 26.2039 53.204 26.8501C53.204 27.4963 52.6782 28.0219 52.0322 28.0219Z" fill="white"/>
<path d="M20.6517 16.2906C20.4338 16.0727 20.1316 15.9471 19.8234 15.9471C19.5152 15.9471 19.2131 16.0725 18.995 16.2906C18.777 16.5085 18.6516 16.8096 18.6516 17.1189C18.6516 17.4272 18.7769 17.7294 18.995 17.9473C19.2129 18.1653 19.5152 18.2907 19.8234 18.2907C20.1327 18.2907 20.4338 18.1654 20.6517 17.9473C20.8708 17.7294 20.9951 17.4272 20.9951 17.1189C20.9951 16.8108 20.8708 16.5085 20.6517 16.2906Z" fill="white"/>
</g>
<defs>
<clipPath id="clip0_10_6599">
<rect width="60" height="60" fill="white"/>
</clipPath>
</defs>
</svg>
