<svg width="35" height="35" viewBox="0 0 35 35" fill="none" xmlns="http://www.w3.org/2000/svg">
<g clip-path="url(#clip0_10_6418)">
<path d="M14.1651 28.4814H7.96784C7.68463 28.4814 7.45508 28.711 7.45508 28.9941C7.45508 29.2774 7.6847 29.5069 7.96784 29.5069H14.1651C14.4483 29.5069 14.6779 29.2773 14.6779 28.9941C14.6779 28.711 14.4483 28.4814 14.1651 28.4814Z" fill="#4CAF50"/>
<path d="M16.6156 12.7859L13.9607 10.672C14.0952 10.2894 14.2169 9.65636 14.2169 8.61785C14.2169 7.09316 13.9002 5.80035 13.6298 4.97429C13.8016 4.8213 13.9107 4.59914 13.9107 4.35154V0.83479C13.9107 0.374526 13.5362 0.00012207 13.0759 0.00012207H9.05666C8.5964 0.00012207 8.22199 0.374595 8.22199 0.83479V4.35154C8.22199 4.5992 8.33102 4.8213 8.50281 4.97429C8.23238 5.80035 7.91567 7.09316 7.91567 8.61785C7.91567 9.65636 8.03742 10.2894 8.17195 10.672L5.51701 12.7859C4.91073 13.2685 4.56299 13.9899 4.56299 14.7649V33.2932C4.56299 34.2344 5.32875 35.0001 6.26999 35.0001H15.8626C16.8038 35.0001 17.5695 34.2344 17.5695 33.2932V14.7649C17.5696 13.9899 17.2219 13.2685 16.6156 12.7859ZM9.24759 1.02572H12.8851V1.81062H9.24759V1.02572ZM9.24759 2.90642H12.8851V4.16068H9.24759V2.90642ZM9.51309 5.18627H12.6195C12.8315 5.8093 13.0884 6.7705 13.1668 7.92325H8.96574C9.04422 6.7705 9.30111 5.8093 9.51309 5.18627ZM5.58865 16.4771H7.23762C7.52083 16.4771 7.75038 16.2474 7.75038 15.9643C7.75038 15.6811 7.52076 15.4515 7.23762 15.4515H5.58865V14.7649C5.58865 14.304 5.79544 13.8752 6.1559 13.5882L9.13486 11.2163C9.26126 11.1157 9.36722 10.9905 9.36243 10.829C9.35792 10.6756 9.31601 10.559 9.19864 10.468C9.15004 10.376 8.97743 9.97929 8.94626 8.94884H13.1865C13.1553 9.97936 12.9827 10.376 12.9341 10.4681C12.8166 10.559 12.7747 10.6757 12.7703 10.8291C12.7655 10.9905 12.8715 11.1157 12.9978 11.2163L15.9768 13.5883C16.3373 13.8753 16.544 14.3041 16.544 14.7649V15.4515H9.62356C9.34035 15.4515 9.1108 15.6811 9.1108 15.9643C9.1108 16.2474 9.34042 16.4771 9.62356 16.4771H16.544V31.4676H5.58865V16.4771ZM16.5441 33.2932H16.544C16.544 33.6689 16.2384 33.9745 15.8627 33.9745H6.27006C5.89436 33.9745 5.58865 33.6689 5.58865 33.2932V32.4932H16.5441V33.2932Z" fill="#4CAF50"/>
<path d="M15.3597 18.9501C15.2772 18.6845 15.0851 18.4651 14.8325 18.3482C12.3335 17.1917 9.79932 17.1917 7.30023 18.3482C7.04778 18.4651 6.85563 18.6844 6.77312 18.95C6.69081 19.215 6.72472 19.5038 6.86615 19.7424L7.32149 20.5105C7.50381 20.8179 7.82961 20.9929 8.16662 20.9928C8.29999 20.9928 8.43514 20.9654 8.56379 20.908C10.2713 20.1462 11.8618 20.1463 13.5691 20.908C14.023 21.1104 14.5571 20.9396 14.8114 20.5105L15.2667 19.7424C15.4081 19.5039 15.442 19.215 15.3597 18.9501ZM13.9488 19.9544C12.0098 19.1002 10.1233 19.1002 8.18419 19.9544L7.77246 19.2599C9.95846 18.261 12.1745 18.2609 14.3605 19.2599L13.9488 19.9544Z" fill="#4CAF50"/>
<path d="M11.0667 21.8563C9.10405 21.8563 7.56665 22.981 7.56665 24.4169C7.56665 25.8528 9.10398 26.9776 11.0667 26.9776C13.0293 26.9776 14.5667 25.8528 14.5667 24.4169C14.5667 22.981 13.0292 21.8563 11.0667 21.8563ZM11.0667 25.9521C9.72537 25.9521 8.59225 25.2491 8.59225 24.417C8.59218 23.5849 9.72537 22.8819 11.0667 22.8819C12.4079 22.8819 13.5411 23.5849 13.5411 24.417C13.5411 25.2491 12.4079 25.9521 11.0667 25.9521Z" fill="#4CAF50"/>
<path d="M29.6229 23.605H22.5119C22.063 23.605 21.6978 23.9703 21.6978 24.4192V33.4349C21.6978 34.298 22.3999 35.0001 23.2629 35.0001H28.8717C29.7348 35.0001 30.4369 34.298 30.4369 33.4349V24.4192C30.437 23.9703 30.0717 23.605 29.6229 23.605ZM22.7234 27.8421H23.4877C23.771 27.8421 24.0005 27.6125 24.0005 27.3293C24.0005 27.0462 23.771 26.8166 23.4877 26.8166H22.7234V24.6306H29.4114V26.8166H25.8737C25.5905 26.8166 25.3609 27.0462 25.3609 27.3293C25.3609 27.6125 25.5905 27.8421 25.8737 27.8421H29.4114V32.2469C29.4114 32.2583 29.411 32.2681 29.4105 32.2764C29.3043 32.3017 29.0721 32.3021 28.9117 32.3015H23.2231C23.0636 32.3023 22.8305 32.3017 22.7243 32.2764C22.7238 32.2681 22.7234 32.2583 22.7234 32.2469V27.8421ZM29.4114 33.4349C29.4114 33.7324 29.1693 33.9745 28.8718 33.9745H23.263C22.9655 33.9745 22.7234 33.7325 22.7234 33.4349V33.3114C22.8834 33.3273 23.052 33.3276 23.2237 33.327H28.9112C29.083 33.3276 29.2513 33.3273 29.4114 33.3114V33.4349Z" fill="#4CAF50"/>
</g>
<defs>
<clipPath id="clip0_10_6418">
<rect width="35" height="35" fill="white"/>
</clipPath>
</defs>
</svg>
